<?xml version="1.0" encoding="utf-8"?>
<!-- Generator: Adobe Illustrator 16.0.2, SVG Export Plug-In . SVG Version: 6.00 Build 0)  -->
<!DOCTYPE svg PUBLIC "-//W3C//DTD SVG 1.1//EN" "http://www.w3.org/Graphics/SVG/1.1/DTD/svg11.dtd">
<svg version="1.1" id="Layer_1" xmlns="http://www.w3.org/2000/svg" xmlns:xlink="http://www.w3.org/1999/xlink" x="0px" y="0px"
	 width="135px" height="150px" viewBox="0 0 135 150" enable-background="new 0 0 135 150" xml:space="preserve">
<g>
	<path d="M130.57,145.001c-6.768,6.769-17.732,6.769-24.486,0l-38.253-43.722l-38.253,43.707c-6.768,6.769-17.734,6.769-24.487,0
		c-6.768-6.766-6.768-17.733,0-24.485l39.797-45.454L5.075,29.563c-6.767-6.768-6.767-17.72,0-24.487
		c6.768-6.768,17.72-6.768,24.488,0l38.268,43.736l38.253-43.736c6.768-6.768,17.719-6.768,24.486,0s6.768,17.734,0,24.487
		L90.773,75.047l39.797,45.454C137.338,127.268,137.338,138.234,130.57,145.001z"/>
</g>
</svg>
