<?xml version="1.0" encoding="utf-8"?>
<!-- Generator: Adobe Illustrator 16.0.2, SVG Export Plug-In . SVG Version: 6.00 Build 0)  -->
<!DOCTYPE svg PUBLIC "-//W3C//DTD SVG 1.1//EN" "http://www.w3.org/Graphics/SVG/1.1/DTD/svg11.dtd">
<svg version="1.1" id="Layer_1" xmlns="http://www.w3.org/2000/svg" xmlns:xlink="http://www.w3.org/1999/xlink" x="0px" y="0px"
	 width="37px" height="50px" viewBox="0 0 37 50" enable-background="new 0 0 37 50" xml:space="preserve">
<g>
	<path fill="none" d="M23.973,32.18c-1.213-0.941-0.846-2.307-0.944-3.68c-3.016,2.193-6.006,2.186-9.059,0.104
		c-0.076,1.375,0.246,2.707-0.95,3.664C16.728,34.042,20.333,34.089,23.973,32.18z"/>
	<path fill="none" d="M13.947,32.658c3.383,1.359,6.69,1.271,10.026-0.479l-5.691,0.479H13.947z"/>
	<path d="M8.379,20.062l-0.182-1.17C8.166,19.291,8.227,19.695,8.379,20.062z"/>
	<path d="M28.526,14.728c0.518,0,1.037,0,1.564,0c0-1.349,0-2.621,0-3.971c-0.625,0-1.231,0-1.875,0
		c-0.159-2.064-0.789-3.889-2.047-5.459c-1.248-1.556-2.807-2.651-4.789-3.204c-0.258,1.539-0.502,2.977-0.744,4.415
		c-0.043-0.004-0.086-0.008-0.129-0.012c0-2.159,0-4.317,0-6.497c-1.355,0-2.647,0-4.057,0c0,2.211,0,4.365-0.001,6.519
		c-0.029,0-0.059,0-0.089,0.001c-0.245-1.457-0.491-2.912-0.755-4.479c-4.152,1.495-6.371,4.375-6.851,8.715
		c-0.614,0-1.219,0-1.824,0c0,1.365,0,2.651,0,4.011c0.214,0,0.418,0,0.624,0l-0.006-0.039H28.526z"/>
	<g>
		<path d="M25.769,31.552c-0.372-0.112-1.009-0.384-1.096-0.937c-0.098-0.619-0.089-1.262-0.08-1.942
			c0.003-0.199,0.006-0.399,0.006-0.596c1.786-1.673,2.633-3.829,3.282-5.911c0.106-0.343,0.198-0.439,0.226-0.462
			c1.383-1.166,1.699-2.743,0.849-4.364c-0.027-0.052-0.075-0.124-0.075-0.102c0.044-0.58,0.105-1.158,0.17-1.766l0.141-1.345H7.547
			l-0.691,0.039l0.18,1.2h1.225c0.002,0.012,0.005,0.024,0.007,0.037c0.192,0.92,0.112,1.55-0.275,2.177
			c-0.225,0.364-0.358,0.79-0.395,1.265l-0.005,0.07l0.193,1.239l0.038,0.137c0.207,0.5,0.526,0.917,0.924,1.208
			c0.352,0.257,0.479,0.552,0.615,1.075c0.407,1.56,0.914,3.502,2.351,4.884c0.604,0.58,0.724,1.141,0.734,1.972
			c0.017,1.363-0.054,1.784-1.759,2.405c-0.128,0.047-3.563,1.509-3.563,1.509l2.739,0.012l0.655-0.219
			c0.006-0.002,0.662-0.216,1.527-0.216c0.347,0,0.673,0.044,0.988,0.111l0.25-0.248c0.052-0.079,0.108-0.172,0.166-0.268
			c0.151,0.042,0.302,0.081,0.454,0.142h0.043c-0.155-0.063-0.31-0.132-0.464-0.195c0.477-0.813,1.075-2.105,1.074-2.793
			c2.656,1.466,5.301,1.44,7.889-0.072c-0.003,1.043,0.049,2.194,1.158,3.056l0.298,0.306l0.363-0.257
			c0.001-0.001,0.117-0.05,0.406-0.05c0.311,0,0.694,0.055,1.14,0.162l0.535,0.147l0.001-0.002c0.019,0.006,0.038,0.012,0.058,0.018
			l1.859,0.606l1.629-0.299L25.769,31.552z M17.585,28.548c-3.099-0.819-4.994-2.543-5.795-5.269
			c-0.172-0.589-0.342-1.178-0.509-1.77l-0.034-0.12c-0.136-0.491-0.322-1.163-1.169-1.53c-0.131-0.057-0.245-0.218-0.305-0.431
			c-0.09-0.321-0.041-0.692,0.123-0.923c0.761-1.078,0.678-2.186,0.55-2.928c-0.01-0.056-0.019-0.113-0.026-0.17h16.499
			c-0.067,0.564-0.132,1.102-0.157,1.641c-0.021,0.462,0.093,0.938,0.307,1.272c0.202,0.321,0.271,0.659,0.197,0.976
			c-0.071,0.313-0.276,0.581-0.594,0.778c-0.365,0.228-0.565,0.643-0.651,0.868c-0.157,0.41-0.3,0.826-0.442,1.243
			c-0.247,0.719-0.479,1.398-0.785,2.046c-1.035,2.185-2.844,3.63-5.375,4.297C18.829,28.68,18.12,28.689,17.585,28.548z"/>
		<path d="M13.682,33.216c-0.204-0.082-0.424-0.136-0.648-0.184l-0.284,0.28L13.682,33.216z"/>
	</g>
	<path fill="none" d="M28.497,34.275c0-0.156-0.219-0.398-0.385-0.452c-0.521-0.169-1.064-0.267-1.638-0.401c0,1.43,0,2.835,0,4.245
		h2.033C28.504,36.536,28.504,35.402,28.497,34.275z"/>
	<path fill="none" d="M10.554,33.491c-0.549,0.123-1.018,0.253-1.494,0.327c-0.464,0.072-0.602,0.291-0.598,0.763
		c0.008,1.028,0.004,2.058,0.004,3.086h2.088C10.554,36.284,10.554,34.896,10.554,33.491z"/>
	<path d="M8.462,34.581c-0.004-0.472,0.134-0.69,0.598-0.763c0.476-0.074,0.945-0.204,1.494-0.327c0,1.405,0,2.793,0,4.176h15.92
		c0-1.41,0-2.815,0-4.245c0.573,0.135,1.116,0.232,1.638,0.401c0.166,0.054,0.385,0.296,0.385,0.452
		c0.008,1.127,0.008,2.261,0.011,3.392h8.245c-0.504-1.761-1.812-3.053-3.77-3.614c-1.02-0.291-2.063-0.502-3.089-0.768
		c-1.032-0.268-2.063-0.536-3.091-0.82c0.002,0.003,0.002,0.008,0.004,0.011c-2.225-0.728-2.834-0.296-2.834-0.296
		c-3.336,1.75-6.643,1.838-10.026,0.479h-0.043c-1.766-0.703-3.576-0.09-3.576-0.09l-0.002-0.011
		c-0.118,0.029-0.232,0.069-0.351,0.098c-1.897,0.464-3.8,0.907-5.692,1.389c-2.104,0.535-3.477,1.802-4.015,3.623h8.197
		C8.466,36.639,8.47,35.609,8.462,34.581z"/>
</g>
</svg>
