<?xml version="1.0" encoding="utf-8"?>
<!-- Generator: Adobe Illustrator 16.0.2, SVG Export Plug-In . SVG Version: 6.00 Build 0)  -->
<!DOCTYPE svg PUBLIC "-//W3C//DTD SVG 1.1//EN" "http://www.w3.org/Graphics/SVG/1.1/DTD/svg11.dtd">
<svg version="1.1" id="Layer_1" xmlns="http://www.w3.org/2000/svg" xmlns:xlink="http://www.w3.org/1999/xlink" x="0px" y="0px"
	 width="50px" height="50.028px" viewBox="0 0 50 50.028" enable-background="new 0 0 50 50.028" xml:space="preserve">
<g>
	<path fill-rule="evenodd" clip-rule="evenodd" d="M24.768,50.028c-2.7-0.017-5.583-0.422-8.292-1.556
		c-1.598-0.668-2.677-2.003-3.348-3.602c-1.647-3.922,0.396-8.604,4.441-10.254c0.983-0.401,1.976-0.785,2.931-1.245
		c0.845-0.405,1.504-1.03,1.803-1.965c0.508-1.588-0.768-4.344-3.396-4.248c-2.008,0.074-3.83,1.41-4.642,3.253
		c-0.375,0.852-0.954,1.632-1.539,2.366c-0.566,0.711-1.394,1.09-2.296,1.185c-1.809,0.191-3.621,0.199-5.41-0.181
		c-1.146-0.243-2.138-0.802-2.969-1.639c-0.98-0.986-1.617-2.092-1.804-3.535c-0.942-7.277,0.809-13.806,5.44-19.482
		c3.91-4.793,8.984-7.74,15.098-8.75c6.922-1.145,13.301,0.312,18.971,4.457c5.419,3.962,8.744,9.313,9.875,15.94
		c1.738,10.189-2.743,20.085-11.519,25.544C34.107,48.809,29.713,50,24.768,50.028z M2.091,25.168
		c0.054,0.846,0.077,1.695,0.172,2.536c0.072,0.638,0.104,1.335,0.39,1.883c0.53,1.015,1.408,1.701,2.553,2.004
		c1.535,0.405,3.096,0.383,4.656,0.28c0.836-0.056,1.462-0.508,1.873-1.241c0.308-0.55,0.609-1.104,0.908-1.66
		c0.825-1.539,2.045-2.647,3.653-3.315c3.431-1.426,6.731-0.068,8.009,3.284c0.829,2.175,0.194,4.406-1.716,5.736
		c-0.701,0.488-1.508,0.829-2.28,1.208c-1.056,0.519-2.184,0.913-3.175,1.531c-1.903,1.188-2.875,3.683-2.309,5.833
		c0.464,1.766,1.478,3.069,3.33,3.631c3.786,1.146,7.618,1.347,11.478,0.545c12.237-2.544,20.329-14.353,17.771-27.017
		C44.9,8.006,32.768,0.049,20.409,2.587C9.679,4.79,2.031,14.235,2.091,25.168z"/>
	<path fill-rule="evenodd" clip-rule="evenodd" d="M38.29,13.829c0.006,2.667-2.103,4.795-4.757,4.8
		c-2.66,0.004-4.805-2.11-4.821-4.754c-0.016-2.669,2.119-4.815,4.8-4.825C36.164,9.042,38.283,11.161,38.29,13.829z M36.17,13.867
		c0.011-1.488-1.141-2.665-2.633-2.691c-1.478-0.026-2.667,1.146-2.676,2.637c-0.009,1.502,1.13,2.673,2.621,2.694
		C34.95,16.527,36.159,15.339,36.17,13.867z"/>
	<path fill-rule="evenodd" clip-rule="evenodd" d="M16.49,10.721c0.005-2.633,2.127-4.759,4.751-4.76
		c2.682-0.001,4.837,2.142,4.828,4.801c-0.009,2.672-2.159,4.794-4.844,4.78C18.572,15.527,16.484,13.402,16.49,10.721z
		 M23.918,10.76c0.01-1.492-1.153-2.667-2.643-2.671c-1.481-0.003-2.664,1.175-2.667,2.658c-0.003,1.481,1.181,2.674,2.653,2.672
		C22.753,13.417,23.909,12.261,23.918,10.76z"/>
	<path fill-rule="evenodd" clip-rule="evenodd" d="M36.801,37.042c0,2.662-2.108,4.781-4.769,4.792
		c-2.647,0.011-4.792-2.115-4.807-4.766c-0.015-2.67,2.125-4.813,4.806-4.811C34.691,32.258,36.801,34.375,36.801,37.042z
		 M32.019,39.694c1.495,0,2.657-1.159,2.657-2.651c0-1.494-1.154-2.647-2.656-2.653c-1.493-0.006-2.657,1.157-2.651,2.651
		C29.375,38.551,30.517,39.694,32.019,39.694z"/>
	<path fill-rule="evenodd" clip-rule="evenodd" d="M15.834,19.105c-0.031,2.696-2.161,4.766-4.869,4.732
		c-2.642-0.033-4.747-2.204-4.71-4.857c0.037-2.633,2.234-4.769,4.859-4.722C13.777,14.305,15.865,16.45,15.834,19.105z
		 M8.401,19.049c-0.002,1.494,1.166,2.671,2.645,2.667c1.494-0.004,2.657-1.161,2.667-2.653c0.011-1.481-1.16-2.655-2.653-2.66
		C9.558,16.399,8.404,17.547,8.401,19.049z"/>
	<path fill-rule="evenodd" clip-rule="evenodd" d="M44.255,25.039c-0.006,2.653-2.136,4.768-4.797,4.765
		c-2.65-0.003-4.78-2.136-4.781-4.788c0-2.67,2.149-4.803,4.829-4.791C42.157,20.239,44.262,22.372,44.255,25.039z M42.137,25.029
		c0.003-1.477-1.177-2.669-2.653-2.681c-1.468-0.012-2.668,1.177-2.678,2.654c-0.01,1.474,1.167,2.664,2.651,2.68
		C40.92,27.698,42.134,26.498,42.137,25.029z"/>
</g>
</svg>
