<?xml version="1.0" encoding="utf-8"?>
<!-- Generator: Adobe Illustrator 16.0.2, SVG Export Plug-In . SVG Version: 6.00 Build 0)  -->
<!DOCTYPE svg PUBLIC "-//W3C//DTD SVG 1.1//EN" "http://www.w3.org/Graphics/SVG/1.1/DTD/svg11.dtd">
<svg version="1.1" id="Layer_1" xmlns="http://www.w3.org/2000/svg" xmlns:xlink="http://www.w3.org/1999/xlink" x="0px" y="0px"
	 width="687.889px" height="596.464px" viewBox="0 0 687.889 596.464" enable-background="new 0 0 687.889 596.464"
	 xml:space="preserve">
<g>
	<rect y="509.575" fill-rule="evenodd" clip-rule="evenodd" width="398.953" height="86.889"/>
	<rect x="0.006" y="355.112" fill-rule="evenodd" clip-rule="evenodd" width="308.862" height="86.889"/>
	<rect x="0.715" y="200.65" fill-rule="evenodd" clip-rule="evenodd" width="384.527" height="86.889"/>
	<rect x="0.006" y="46.188" fill-rule="evenodd" clip-rule="evenodd" width="308.812" height="86.889"/>
	<path fill-rule="evenodd" clip-rule="evenodd" d="M683.418,147.274c-4.192,5.187-9.809,7.166-16.322,7.148
		c-12.136-0.032-24.272-0.01-37.179-0.01c0,2.852,0,5,0,7.147c0,119.141,0.005,238.283-0.009,357.424
		c-0.002,13.789-7.928,21.723-21.696,21.738c-23.161,0.023-46.322-0.014-69.484-0.022c-17.759-0.007-24.587-6.763-24.587-24.347
		c-0.001-118.308-0.001-236.617-0.001-354.926c0-2.134,0-4.271,0-7.045c-2.267,0-4.051,0.002-5.835,0
		c-10.331,0-20.663-0.053-30.993,0.014c-8.58,0.054-15.286-3.092-19.081-11.083c-3.817-8.042-1.794-15.184,3.682-21.747
		c31.05-37.228,62.06-74.488,93.114-111.714c11.042-13.232,23.176-13.093,34.183,0.155c21.188,25.498,42.442,50.938,63.667,76.405
		c9.813,11.771,19.67,23.511,29.416,35.339C689.371,130.343,689.722,139.476,683.418,147.274z"/>
</g>
</svg>
