<?xml version="1.0" encoding="utf-8"?>
<!-- Generator: Adobe Illustrator 16.0.2, SVG Export Plug-In . SVG Version: 6.00 Build 0)  -->
<!DOCTYPE svg PUBLIC "-//W3C//DTD SVG 1.1//EN" "http://www.w3.org/Graphics/SVG/1.1/DTD/svg11.dtd">
<svg version="1.1" id="Layer_1" xmlns="http://www.w3.org/2000/svg" xmlns:xlink="http://www.w3.org/1999/xlink" x="0px" y="0px"
	 width="19.285px" height="9.33px" viewBox="0 0 19.285 9.33" enable-background="new 0 0 19.285 9.33" xml:space="preserve">
<g>
	<path d="M18.559,3.63c-0.172-0.06-0.356-0.08-0.535-0.1l-0.129-0.015c-0.977-0.123-1.955-0.245-2.932-0.359
		c-0.141-0.017-0.242-0.06-0.342-0.143c-0.626-0.531-1.255-1.06-1.885-1.588l-1.139-0.959C11.23,0.157,10.805,0,10.328,0
		L7.554,0.001L5.285,0c-0.551,0-0.979,0.236-1.27,0.701C3.621,1.328,3.196,1.99,2.639,2.85C2.609,2.894,2.551,2.938,2.5,2.955
		C2.14,3.067,1.779,3.176,1.417,3.284L0.946,3.425C0.25,3.635-0.096,4.192,0.023,4.914l0.031,0.188
		c0.064,0.39,0.13,0.792,0.178,1.188c0.113,0.973,0.809,1.595,1.77,1.552C2.405,7.825,2.81,7.83,3.216,7.834
		C3.4,7.836,3.584,7.838,3.767,7.838h0.065c0.215,0.838,0.856,1.418,1.652,1.485c0.05,0.005,0.1,0.007,0.15,0.007
		c0.722,0,1.596-0.465,1.851-1.483h2.422c1.006,0,2.013,0,3.024-0.004c0.108,0,0.129,0.008,0.159,0.126
		c0.21,0.8,0.947,1.359,1.792,1.358c0.369,0,0.725-0.11,1.028-0.318c0.414-0.283,0.671-0.667,0.788-1.172l0.592,0.002
		c0.139,0,0.277-0.001,0.415-0.005c0.637-0.019,1.144-0.438,1.257-1.05c0.11-0.579,0.211-1.211,0.311-1.933
		C19.35,4.295,19.063,3.805,18.559,3.63z M4.867,6.683c0.212-0.211,0.493-0.33,0.789-0.33v-0.1l0,0l0.001,0.1
		c0.613,0.002,1.111,0.514,1.11,1.141c0,0.589-0.509,1.088-1.114,1.09c-0.622,0-1.109-0.495-1.11-1.127
		C4.543,7.167,4.658,6.892,4.867,6.683z M5.277,0.745v-0.1l0,0l0.002,0.1c1.675,0.003,3.348,0.002,5.028,0
		c0.316,0,0.586,0.098,0.823,0.299c1.056,0.889,2.113,1.777,3.175,2.659c0.098,0.082,0.24,0.142,0.379,0.161
		c0.849,0.11,1.696,0.213,2.545,0.317l0.686,0.083c0.08,0.01,0.16,0.02,0.24,0.029c0.283,0.03,0.412,0.186,0.384,0.461
		c-0.021,0.199-0.054,0.401-0.085,0.597l-0.057,0.348c-0.047,0.299-0.094,0.597-0.145,0.895c-0.051,0.305-0.26,0.491-0.557,0.5
		c-0.135,0.004-0.27,0.006-0.403,0.006c-0.196,0-0.396-0.002-0.593-0.004c-0.244-1.021-1.106-1.486-1.82-1.486h-0.053
		c-0.715,0.021-1.529,0.485-1.773,1.475H7.471C7.356,6.595,7.098,6.209,6.704,5.937C6.366,5.703,5.986,5.593,5.58,5.61
		C4.901,5.638,4.093,6.046,3.825,7.099H3.156h-1.2C1.393,7.097,1.086,6.84,0.991,6.29C0.912,5.833,0.835,5.342,0.75,4.743
		c-0.045-0.316,0.076-0.5,0.394-0.597l0.344-0.104c0.449-0.137,0.898-0.273,1.347-0.406C2.994,3.589,3.11,3.501,3.199,3.36
		c0.262-0.414,0.525-0.827,0.789-1.239C4.206,1.78,4.424,1.439,4.641,1.098C4.793,0.857,4.996,0.745,5.277,0.745z M14.875,6.354
		v-0.1l0,0l0.006,0.1c0.614,0.002,1.112,0.516,1.11,1.142c-0.003,0.589-0.513,1.087-1.116,1.087H14.85
		c-0.283,0-0.563-0.124-0.771-0.339c-0.218-0.228-0.331-0.521-0.317-0.83C13.785,6.839,14.294,6.354,14.875,6.354z"/>
	<path d="M5.438,4.062C6.026,4.066,6.613,4.067,7.2,4.067h4.417c0.242,0,0.402-0.143,0.408-0.361c0.002-0.1-0.03-0.19-0.096-0.258
		c-0.074-0.077-0.184-0.122-0.312-0.125H5.427c-0.03,0-0.06,0.001-0.088,0.005c-0.141,0.021-0.258,0.117-0.306,0.25
		C4.99,3.696,5.013,3.822,5.095,3.913C5.17,3.999,5.315,4.061,5.438,4.062z"/>
</g>
</svg>
