<?xml version="1.0"?>
<svg xmlns="http://www.w3.org/2000/svg" height="512px" viewBox="-31 0 512 512" width="512px" data-lt-installed="true" class=""><g><path d="m450 150v-150h-90v60h-92.761719c-6.214843-17.421875-22.707031-30-42.238281-30s-36.023438 12.578125-42.238281 30h-92.761719v-60h-90v150h90v-60h92.761719c4.535156 12.707031 14.53125 22.703125 27.238281 27.238281v32.761719h-30v182h30v47.128906c-20.984375 5.457032-37.414062 21.886719-42.871094 42.871094h-77.128906v-60h-90v150h90v-60h77.128906c6.707032 25.808594 29.988282 45 57.871094 45s51.164062-19.191406 57.871094-45h77.128906v60h90v-150h-90v60h-77.128906c-5.457032-20.984375-21.886719-37.414062-42.871094-42.871094v-47.128906h30v-182h-30v-32.761719c12.707031-4.535156 22.703125-14.53125 27.238281-27.238281h92.761719v60zm0 0" data-original="#000000" class="active-path" data-old_color="#000000" fill="#76838F"/></g> </svg>
