<?xml version="1.0" encoding="iso-8859-1"?>
<!-- Generator: Adobe Illustrator 19.0.0, SVG Export Plug-In . SVG Version: 6.00 Build 0)  -->
<svg version="1.1" id="Capa_1" xmlns="http://www.w3.org/2000/svg" xmlns:xlink="http://www.w3.org/1999/xlink" x="0px" y="0px"
	 viewBox="0 0 497.659 497.659" style="enable-background:new 0 0 497.659 497.659;" xml:space="preserve">
<g>
	<g>
		<g>
			<path d="M470.947,204.765H352.735c-4.518,0-7.529,3.012-7.529,7.529s3.012,7.529,7.529,7.529h118.212
				c6.023,0,11.294,5.271,11.294,11.294v240.188c0,6.023-5.271,11.294-11.294,11.294H26.712c-6.023,0-11.294-5.271-11.294-11.294
				V231.118c0-6.024,5.271-11.294,11.294-11.294h182.965c4.518,0,7.529-3.012,7.529-7.529s-3.012-7.529-7.529-7.529H26.712
				c-14.306,0-26.353,12.047-26.353,26.353v240.188c0,14.306,12.047,26.353,26.353,26.353h444.235
				c14.306,0,26.353-12.047,26.353-26.353V231.118C497.3,216.059,485.253,204.765,470.947,204.765z"/>
			<path d="M269.912,335.777c4.518,0,7.529-3.012,7.529-7.529s-3.012-7.529-7.529-7.529H149.441c-4.518,0-7.529,3.012-7.529,7.529
				s3.012,7.529,7.529,7.529H269.912z"/>
			<path d="M433.3,377.941H80.924c-4.518,0-7.529,3.012-7.529,7.529S76.406,393,80.924,393h351.624c4.518,0,7.529-3.012,7.529-7.529
				S437.065,377.941,433.3,377.941z"/>
			<path d="M80.924,429.141c-4.518,0-7.529,3.012-7.529,7.529s3.012,7.529,7.529,7.529h351.624c4.518,0,7.529-3.012,7.529-7.529
				s-3.012-7.529-6.776-7.529H80.924z"/>
			<path d="M461.912,331.259v-41.412c0-4.518-3.012-7.529-7.529-7.529H309.065c-4.518,0-7.529,3.012-7.529,7.529v41.412
				c0,4.518,3.012,7.529,7.529,7.529h145.318C458.9,338.789,461.912,335.777,461.912,331.259z M446.853,323.73H316.594v-26.353
				h130.259V323.73z"/>
			<path d="M124.594,336.53v-75.294c0-4.518-3.012-7.529-7.529-7.529H44.03c-4.518,0-7.529,3.012-7.529,7.529v75.294
				c0,4.518,3.012,7.529,7.529,7.529h73.035C120.83,344.059,124.594,340.294,124.594,336.53z M109.535,329H51.559v-60.235h57.976
				V329z"/>
			<path d="M202.9,292.859c2.259,2.259,6.024,2.259,9.035,0.753l103.153-64l1.506-1.506C348.218,191.212,425.771,100.859,449.112,73
				c15.812-18.824,13.553-46.682-5.271-62.494c-18.823-15.812-46.682-13.553-62.494,5.271
				C367.041,32.341,262.382,155.071,248.83,171.636l-1.506,2.259l-46.682,110.682C199.135,287.589,199.888,291.353,202.9,292.859z
				 M392.641,25.565c10.541-12.047,29.365-13.553,41.412-3.012c12.047,10.541,13.553,28.612,3.012,40.659l-6.776,8.282
				l-44.424-37.647L392.641,25.565z M376.077,45.894L420.5,83.541L407.7,98.6l-44.424-37.647L376.077,45.894z M353.488,72.247
				l44.424,37.647l-88.847,103.153L264.641,175.4L353.488,72.247z M257.112,188.953l39.906,33.882l-73.788,45.929L257.112,188.953z"
				/>
		</g>
	</g>
</g>
<g>
</g>
<g>
</g>
<g>
</g>
<g>
</g>
<g>
</g>
<g>
</g>
<g>
</g>
<g>
</g>
<g>
</g>
<g>
</g>
<g>
</g>
<g>
</g>
<g>
</g>
<g>
</g>
<g>
</g>
</svg>
