<?xml version="1.0"?>
<svg xmlns="http://www.w3.org/2000/svg" viewBox="0 0 64 64" width="512px" height="512px" data-lt-installed="true" class=""><g><g id="solid"><path d="M49,26a12.933,12.933,0,0,0-4.246.726L40.525,17H46.5a1.5,1.5,0,0,1,0,3H44v2h2.5a3.5,3.5,0,0,0,0-7H39a1,1,0,0,0-.917,1.4l2,4.6H23.363l-.972-3.054-1.907.608.861,2.7a.992.992,0,0,0-.229.277l-2.938,5.55a13,13,0,1,0,7.364,15.287l.5.094a2.989,2.989,0,0,0,2.409,2.482l1.1,3.288a1,1,0,0,0,.925.684l3.5.083.046-2-2.8-.066-.775-2.324A2.978,2.978,0,0,0,31.465,40.3L42.082,25.6l.836,1.924A12.987,12.987,0,1,0,49,26ZM13,49a10,10,0,1,1,3.769-19.257l-4.653,8.789a1,1,0,0,0,.7,1.45l9.775,1.833A10.013,10.013,0,0,1,13,49Zm9.957-9.15L14.52,38.268l4.017-7.588A9.995,9.995,0,0,1,23,39C23,39.287,22.981,39.569,22.957,39.85Zm3.46.648-.5-.093a12.926,12.926,0,0,0-5.98-12.378l2.223-4.2L27.192,39.62A2.99,2.99,0,0,0,26.417,40.5Zm3.42-1.365a2.96,2.96,0,0,0-.739-.123L24,23H40.953l.2.463ZM49,49a9.994,9.994,0,0,1-4.881-18.719L48.083,39.4l1.834-.8-3.966-9.123A10,10,0,1,1,49,49Z" data-original="#000000" class="active-path" data-old_color="#000000" fill="#76838F"/><path d="M17.414,13a1.414,1.414,0,0,0-1,2.414l.57.57a3.469,3.469,0,0,0,3.55.838l4.671-1.557a1.162,1.162,0,0,0,.8-1.1h0A1.162,1.162,0,0,0,24.838,13Z" data-original="#000000" class="active-path" data-old_color="#000000" fill="#76838F"/></g></g> </svg>
