<svg height="511pt" viewBox="1 -43 511.99998 511" width="511pt" xmlns="http://www.w3.org/2000/svg"><path d="m442.902344 101.441406c-16.328125 0-391.878906 0-426.15625 0-9.246094 0-16.746094 7.5-16.746094 16.746094v290.816406c0 9.25 7.5 16.746094 16.746094 16.746094h426.15625c9.25 0 16.746094-7.5 16.746094-16.746094v-290.8125c0-9.25-7.496094-16.75-16.746094-16.75zm0 0" fill="#fda537"/><path d="m31.464844 409.003906v-290.8125c0-9.25 7.496094-16.75 16.746094-16.75-15.679688 0-26.773438 0-31.464844 0-9.246094 0-16.746094 7.5-16.746094 16.75v290.8125c0 9.25 7.5 16.746094 16.746094 16.746094h31.464844c-9.246094 0-16.746094-7.496094-16.746094-16.746094zm0 0" fill="#f9972d"/><path d="m239.832031 289.847656c-5.875 4.613282-14.140625 4.613282-20.015625 0l-34.613281-27.175781-185.203125 146.332031c0 9.25 7.5 16.746094 16.746094 16.746094h426.15625c9.246094 0 16.746094-7.496094 16.746094-16.746094l-185.203126-146.332031zm0 0" fill="#feb644"/><path d="m16.746094 425.75h31.464844c-9.25 0-16.746094-7.496094-16.746094-16.746094v-24.863281l-31.464844 24.863281c0 9.25 7.5 16.746094 16.746094 16.746094zm0 0" fill="#fda537"/><path d="m442.902344 101.441406c-10.179688 0-414.011719 0-426.15625 0-9.246094 0-16.746094 7.5-16.746094 16.746094l219.816406 172.582031c5.875 4.613281 14.140625 4.613281 20.015625 0l219.816407-172.582031c0-9.246094-7.496094-16.746094-16.746094-16.746094zm0 0" fill="#ffc850"/><path d="m31.464844 142.890625v-24.703125c0-9.246094 7.496094-16.746094 16.746094-16.746094-15.679688 0-26.773438 0-31.464844 0-3.105469 0-6.007813.863282-8.503906 2.335938-4.925782 2.917968-8.242188 8.269531-8.242188 14.410156zm0 0" fill="#feb644"/><path d="m512 86.433594c0 47.457031-38.472656 85.933594-85.933594 85.933594-47.457031 0-85.933594-38.476563-85.933594-85.933594 0-47.460938 38.476563-85.933594 85.933594-85.933594 47.460938 0 85.933594 38.472656 85.933594 85.933594zm0 0" fill="#f25c5c"/><path d="m371.039062 86.433594c0-42.179688 30.402344-77.238282 70.480469-84.519532-5.015625-.914062-10.171875-1.414062-15.453125-1.414062-47.460937 0-85.933594 38.472656-85.933594 85.933594 0 47.460937 38.476563 85.933594 85.933594 85.933594 5.28125 0 10.4375-.503907 15.453125-1.414063-40.078125-7.28125-70.480469-42.339844-70.480469-84.519531zm0 0" fill="#e54a4a"/><path d="m426.066406 134.113281c-4.265625 0-7.726562-3.460937-7.726562-7.726562v-63.355469h-1.5c-4.265625 0-7.726563-3.457031-7.726563-7.726562 0-4.265626 3.460938-7.726563 7.726563-7.726563h9.226562c4.265625 0 7.726563 3.457031 7.726563 7.726563v71.078124c0 4.269532-3.457031 7.730469-7.726563 7.730469zm0 0" fill="#e4eaf8"/></svg>