<?xml version="1.0" encoding="utf-8"?>
<!-- Generator: Adobe Illustrator 16.0.2, SVG Export Plug-In . SVG Version: 6.00 Build 0)  -->
<!DOCTYPE svg PUBLIC "-//W3C//DTD SVG 1.1//EN" "http://www.w3.org/Graphics/SVG/1.1/DTD/svg11.dtd">
<svg version="1.1" id="Layer_1" xmlns="http://www.w3.org/2000/svg" xmlns:xlink="http://www.w3.org/1999/xlink" x="0px" y="0px"
	 width="90px" height="89.991px" viewBox="0 0 90 89.991" enable-background="new 0 0 90 89.991" xml:space="preserve">
<g>
	<linearGradient id="SVGID_1_" gradientUnits="userSpaceOnUse" x1="45" y1="0" x2="45" y2="89.9912">
		<stop  offset="0" style="stop-color:#9150FF"/>
		<stop  offset="0.3064" style="stop-color:#884AFF"/>
		<stop  offset="1" style="stop-color:#773FFF"/>
	</linearGradient>
	<rect fill-rule="evenodd" clip-rule="evenodd" fill="url(#SVGID_1_)" width="90" height="89.991"/>
	<g>
		<path fill-rule="evenodd" clip-rule="evenodd" fill="#FFFFFF" d="M11.404,49.233c0.011-0.342-0.068-0.675-0.087-1.014
			c-0.021-0.35-0.065-0.697-0.087-1.046c-0.091-1.439-0.102-2.878-0.002-4.317c0.542-7.771,3.369-14.598,8.556-20.41
			c4.653-5.212,10.406-8.641,17.189-10.331c1.417-0.353,2.856-0.597,4.309-0.755c1.333-0.146,2.671-0.219,4.011-0.206
			c8.388,0.083,16.25,3.175,22.381,8.727c4.659,4.219,7.905,9.345,9.735,15.362c0.169,0.555,0.308,1.118,0.46,1.676
			c0.024,0.087,0.052,0.172,0.078,0.257c0.104,0.508,0.211,1.014,0.31,1.523c0.18,0.93,0.308,1.868,0.41,2.81
			c0.083,0.773,0.11,1.551,0.171,2.326c-0.021,0.04-0.021,0.079,0.003,0.118c0,0.681,0,1.362,0,2.043
			c-0.022,0.039-0.024,0.078-0.002,0.117c-0.017,0.249-0.037,0.498-0.05,0.748c-0.18,3.44-0.862,6.779-2.088,9.997
			c-2.734,7.175-7.368,12.806-13.863,16.897c-3.131,1.971-6.516,3.354-10.118,4.197c-1.188,0.279-2.388,0.483-3.6,0.635
			c-1.92,0.241-3.848,0.302-5.778,0.209c-3.971-0.19-7.795-1.053-11.461-2.597c-7.071-2.98-12.94-8.29-16.61-15.024
			c-0.053-0.097-0.104-0.194-0.152-0.293c-0.031-0.064,0.004-0.112,0.083-0.116c0.069-0.004,0.14-0.004,0.209-0.004
			c1.92,0,3.84,0,5.76,0.001c0.339,0,0.271-0.039,0.479,0.258c3.531,5.023,8.182,8.574,13.971,10.624
			c1.644,0.582,3.333,0.983,5.058,1.245c1.926,0.292,3.861,0.379,5.802,0.269c4.584-0.26,8.864-1.549,12.813-3.895
			c3.913-2.324,7.083-5.419,9.521-9.262c0.016-0.025,0.036-0.049,0.047-0.076c0.067-0.165,0.193-0.201,0.361-0.197
			c0.409,0.009,0.82-0.002,1.229,0.005c0.193,0.004,0.379-0.031,0.56-0.088c0.283-0.091,0.47-0.285,0.565-0.572
			c0.109-0.328,0.049-0.631-0.118-0.919c-0.235-0.407-0.477-0.811-0.71-1.218c-0.159-0.277-0.162-0.197-0.032-0.489
			c0.263-0.594,0.509-1.195,0.731-1.806c0.65-1.791,1.119-3.627,1.397-5.513c0.128-0.871,0.212-1.747,0.268-2.624
			c0.011-0.169,0.006-0.34,0.009-0.51c0.025-0.039,0.024-0.077,0.002-0.117c0.035-0.602,0.038-1.202,0-1.803
			c0.024-0.059,0.025-0.119-0.002-0.177c0.017-0.493-0.048-0.981-0.079-1.471c-0.002-0.028-0.017-0.056-0.025-0.084
			c0-0.079,0.008-0.159-0.001-0.238c-0.044-0.397-0.083-0.795-0.141-1.191c-0.276-1.915-0.732-3.786-1.401-5.603
			c-2-5.437-5.338-9.873-10.023-13.274c-4.39-3.188-9.316-4.933-14.726-5.305c-1.469-0.101-2.938-0.075-4.404,0.057
			c-1.276,0.115-2.54,0.312-3.788,0.604c-4.917,1.149-9.231,3.441-12.925,6.882c-3.176,2.958-5.542,6.471-7.108,10.521
			c-0.778,2.013-1.311,4.09-1.606,6.227c-0.128,0.932-0.206,1.868-0.248,2.808c-0.073,1.622,0.018,3.237,0.221,4.847
			c0.026,0.207,0.03,0.419,0.107,0.618c-0.006,0.104,0.014,0.206,0.047,0.304c-0.121,0.069-0.254,0.044-0.381,0.044
			c-1.597,0.001-3.194,0.001-4.791,0.001c-0.09,0-0.18-0.001-0.27-0.006c-0.066-0.003-0.107-0.046-0.139-0.1
			C11.451,49.432,11.449,49.33,11.404,49.233z"/>
		<path fill-rule="evenodd" clip-rule="evenodd" fill="#FFFFFF" d="M29.038,49.089c-0.063-0.03-0.124-0.063-0.188-0.089
			c-2.01-0.801-3.451-2.206-4.375-4.146c-0.733-1.538-1.02-3.167-0.918-4.867c0.084-1.407,0.433-2.743,1.115-3.98
			c1.211-2.198,3.064-3.536,5.514-4.055c0.688-0.146,1.383-0.199,2.085-0.2c0.79-0.001,1.579-0.001,2.369-0.002
			c4.059-0.003,8.118-0.007,12.177-0.008c0.124,0,0.258-0.043,0.373,0.048c-0.012,0.126-0.1,0.213-0.163,0.314
			c-1.223,1.97-2.445,3.94-3.673,5.908c-0.28,0.448-0.145,0.383-0.675,0.383c-3.409,0.002-6.817,0.002-10.227,0.001
			c-0.33,0-0.659,0.017-0.98,0.103c-0.826,0.221-1.43,0.889-1.535,1.7c-0.148,1.157,0.564,2.149,1.709,2.377
			c0.236,0.046,0.475,0.06,0.715,0.06c2.379-0.002,4.758-0.001,7.138-0.001c0.994,0,1.975,0.112,2.938,0.362
			c1.437,0.375,2.725,1.029,3.819,2.044c0.734,0.681,1.315,1.476,1.748,2.378c0.043,0.09,0.091,0.177,0.136,0.266
			c0.164,0.43,0.32,0.861,0.426,1.311c0.588,2.485-0.064,5.083-1.751,6.927c-0.811,0.885-1.78,1.542-2.883,2.003
			c-0.938,0.393-1.916,0.627-2.925,0.739c-0.568,0.063-1.137,0.087-1.706,0.087c-9.199,0-18.396,0-27.594,0
			c-0.121,0-0.24-0.001-0.36-0.007c-0.073-0.003-0.099-0.059-0.063-0.126c0.043-0.078,0.091-0.155,0.139-0.231
			c1.325-2.153,2.651-4.308,3.978-6.46c0.207-0.334,0.134-0.286,0.519-0.286c7.738,0,15.477,0.002,23.216,0.004
			c0.179,0,0.359-0.001,0.54-0.005c0.221-0.005,0.436-0.056,0.642-0.138c0.159-0.064,0.302-0.153,0.423-0.276
			c0.339-0.345,0.343-0.835,0.004-1.182c-0.218-0.223-0.496-0.332-0.795-0.388c-0.207-0.039-0.417-0.048-0.626-0.048
			c-2.26,0.002-4.52,0.001-6.779,0c-0.35,0-0.7-0.006-1.05-0.01c-0.04-0.001-0.08-0.003-0.12-0.005
			c-0.217-0.032-0.434-0.063-0.65-0.095c-0.526-0.076-1.038-0.2-1.54-0.373C29.136,49.111,29.086,49.101,29.038,49.089z"/>
		<path fill-rule="evenodd" clip-rule="evenodd" fill="#FFFFFF" d="M55.905,47.617c-0.045-0.088-0.087-0.18-0.138-0.264
			c-1.145-1.9-2.29-3.801-3.436-5.701c-0.042-0.068-0.082-0.136-0.127-0.203c-0.044-0.065-0.088-0.063-0.138,0.01
			c-0.046,0.065-0.088,0.133-0.13,0.201c-0.79,1.25-1.58,2.5-2.37,3.75c-0.048,0.076-0.096,0.153-0.15,0.224
			c-0.029,0.038-0.072,0.031-0.098-0.008c-0.048-0.075-0.092-0.154-0.138-0.232c-1.148-1.942-2.783-3.299-4.905-4.064
			c-0.375-0.135-0.364-0.101-0.166-0.427c1.31-2.15,2.603-4.311,3.942-6.444c0.202-0.322,0.408-0.642,0.626-0.952
			c0.402-0.57,0.895-1.052,1.506-1.394c1.517-0.845,3-0.772,4.435,0.201c0.614,0.417,1.082,0.976,1.464,1.605
			c0.394,0.65,0.781,1.303,1.167,1.957c1.224,2.075,2.443,4.151,3.667,6.226c0.06,0.103,0.104,0.217,0.197,0.298
			c0.056,0.105,0.11,0.212,0.169,0.316c3.041,5.192,6.082,10.386,9.122,15.58c0.076,0.132,0.199,0.248,0.189,0.42
			c-0.142,0.073-0.293,0.034-0.439,0.034c-2.359,0.002-4.719,0.002-7.079,0.002c-0.041,0-0.08,0-0.121,0
			c-0.365-0.004-0.301,0.037-0.491-0.279c-2.112-3.501-4.222-7.003-6.333-10.505C56.06,47.849,55.981,47.733,55.905,47.617z"/>
	</g>
</g>
<path fill-rule="evenodd" clip-rule="evenodd" fill="#9150FF" d="M-581.146-406.316c1.828,3.911,1.766,7.855,0.203,11.825
	C-584.41-398.374-584.511-402.315-581.146-406.316z"/>
<path fill-rule="evenodd" clip-rule="evenodd" fill="#9150FF" d="M-200.012-402.555c-1.581-2.568-1.651-5.174-0.19-7.818
	C-197.65-407.828-197.548-405.223-200.012-402.555z"/>
<path fill-rule="evenodd" clip-rule="evenodd" fill="#9150FF" d="M-580.982-274.35c1.475,2.634,1.507,5.238-0.154,7.809
	C-583.57-269.193-583.509-271.795-580.982-274.35z"/>
<path fill-rule="evenodd" clip-rule="evenodd" fill="#9150FF" d="M-200.148-258.536c-1.469-2.629-1.312-5.219,0.185-7.777
	C-197.536-263.661-197.625-261.069-200.148-258.536z"/>
</svg>
