<?xml version="1.0" encoding="utf-8"?>
<!-- Generator: Adobe Illustrator 16.0.2, SVG Export Plug-In . SVG Version: 6.00 Build 0)  -->
<!DOCTYPE svg PUBLIC "-//W3C//DTD SVG 1.1//EN" "http://www.w3.org/Graphics/SVG/1.1/DTD/svg11.dtd">
<svg version="1.1" id="Layer_1" xmlns="http://www.w3.org/2000/svg" xmlns:xlink="http://www.w3.org/1999/xlink" x="0px" y="0px"
	 width="19.302px" height="11.751px" viewBox="0.094 -2.421 19.302 11.751" enable-background="new 0.094 -2.421 19.302 11.751"
	 xml:space="preserve">
<g>
	<path fill="#FFFFFF" d="M18.023,1.019C17.527,1,17.021,0.996,16.588,1.02c-0.24,0.009-0.35-0.059-0.418-0.314
		c-0.109-0.399-0.24-0.797-0.367-1.184l-0.059-0.179c-0.363-1.097-1.258-1.754-2.389-1.758c-2.396-0.008-4.791-0.008-7.188,0
		C4.978-2.412,4.083-1.748,3.71-0.595C3.678-0.494,3.644-0.393,3.61-0.292C3.505,0.021,3.397,0.345,3.324,0.674
		c-0.059,0.26-0.167,0.348-0.431,0.348c-0.021,0-0.042,0-0.064-0.002C2.349,0.997,1.864,0.999,1.391,1.026
		C0.644,1.068,0.086,1.665,0.094,2.413c0.008,0.715,0.554,1.3,1.271,1.361c0.193,0.017,0.389,0.012,0.539,0.007
		c0.01,0,0.021,0,0.031-0.001C1.905,4.136,1.877,4.487,1.848,4.839c-0.081,0.996-0.157,1.94-0.222,2.905
		c-0.019,0.294,0.03,0.59,0.133,0.817C2.088,9.271,2.688,9.33,3.274,9.33L3.6,9.328c0.043,0,0.086,0,0.129,0L3.824,9.33
		c0.514,0,1.143-0.091,1.446-0.79c0.07-0.159,0.102-0.333,0.132-0.5C5.41,7.996,5.418,7.952,5.427,7.909h8.618
		c0.26,1.165,0.596,1.419,1.813,1.419h0.162c0.244-0.002,0.498-0.002,0.746-0.04c0.637-0.095,1.078-0.596,1.074-1.223
		c-0.002-1.016-0.037-1.854-0.105-2.643c-0.033-0.404-0.119-0.798-0.211-1.216c-0.031-0.138-0.061-0.279-0.09-0.422
		c0.041,0,0.082,0.001,0.123,0.001c0.164,0.002,0.318,0.003,0.471-0.003c0.785-0.04,1.373-0.637,1.367-1.387
		C19.395,1.641,18.805,1.049,18.023,1.019z M3.023,1.675C2.961,1.81,2.907,1.944,2.853,2.074C2.695,2.462,2.558,2.796,2.319,3.002
		c-0.165,0.14-0.598,0.14-1.184-0.001c-0.33-0.08-0.411-0.442-0.346-0.744c0.08-0.377,0.326-0.572,0.733-0.58
		c0.202-0.003,0.404-0.005,0.615-0.005L3.023,1.675z M13.293-1.739c0.918,0.003,1.518,0.444,1.836,1.347
		c0.395,1.105,0.857,2.389,1.365,3.65c0.537,1.331,0.752,2.789,0.701,4.732c0,0.014,0.002,0.025-0.002,0.04
		c-0.063,0.446-0.248,0.633-1.246,0.633c-0.133,0-0.279-0.002-0.438-0.008c-0.279-0.012-0.48-0.084-0.602-0.217
		c-0.104-0.113-0.148-0.275-0.135-0.48c0.018-0.277-0.029-0.464-0.143-0.585c-0.141-0.147-0.355-0.179-0.639-0.179h-0.031
		c-2.818,0.018-5.638,0.018-8.457,0H5.476c-0.276,0-0.488,0.029-0.622,0.173c-0.11,0.117-0.153,0.292-0.136,0.556
		c0.015,0.227-0.037,0.404-0.152,0.528c-0.119,0.127-0.31,0.194-0.551,0.196C3.891,8.649,3.775,8.651,3.667,8.653
		C3.054,8.667,2.68,8.671,2.495,8.48C2.319,8.3,2.262,7.903,2.285,7.023c0.048-1.772,0.424-3.301,1.151-4.673
		c0.293-0.552,0.465-1.173,0.63-1.773c0.072-0.261,0.147-0.53,0.23-0.79c0.358-1.128,0.9-1.527,2.071-1.527L7.496-1.74L9.75-1.739
		l2.238-0.001C12.424-1.741,12.857-1.74,13.293-1.739z M16.877,2.508c-0.088-0.175-0.176-0.351-0.271-0.548
		c-0.045-0.09-0.092-0.184-0.143-0.285c0.146,0,0.285-0.001,0.42-0.002c0.4-0.002,0.76-0.005,1.117,0.008
		c0.42,0.018,0.705,0.3,0.713,0.703c0.006,0.389-0.271,0.686-0.691,0.738c-0.184,0.022-0.33,0.038-0.447,0.038
		C17.242,3.16,17.152,3.045,16.877,2.508z"/>
	<path fill="#FFFFFF" d="M4.696,0.447c-0.153,0.659-0.23,0.99-0.083,1.206c0.146,0.213,0.475,0.26,1.128,0.352
		C5.782,2.01,5.821,2.018,5.86,2.026l0.033,0.006c1.188,0.221,2.4,0.328,3.705,0.328c1.486,0,3.087-0.143,4.894-0.438
		c0.225-0.037,0.365-0.108,0.441-0.224c0.098-0.147,0.068-0.339,0.027-0.508c-0.068-0.28-0.131-0.561-0.191-0.843
		c-0.043-0.2-0.086-0.399-0.133-0.599c-0.189-0.802-0.578-1.115-1.393-1.119c-0.514-0.002-1.025-0.002-1.539-0.002L7.007-1.372
		C5.157-1.372,5.114-1.338,4.696,0.447z M5.598-0.354c0.05-0.137,0.337-0.315,0.513-0.318c1.264-0.014,2.427-0.02,3.554-0.02
		c1.291,0,2.544,0.009,3.724,0.026c0.168,0.002,0.463,0.239,0.535,0.431c0.131,0.337,0.199,0.699,0.273,1.081
		c0.023,0.125,0.049,0.25,0.076,0.378c-1.506,0.307-3.023,0.463-4.517,0.463c-1.49,0-3.018-0.155-4.542-0.461
		c0.027-0.122,0.052-0.245,0.077-0.368C5.375,0.455,5.461,0.037,5.598-0.354z"/>
	<path fill="#FFFFFF" d="M4.088,3.965c-0.159,0-0.316,0.017-0.468,0.05c-0.575,0.124-0.958,0.512-0.976,0.99
		c-0.02,0.571,0.38,1.002,0.971,1.046c0.322,0.024,0.669,0.036,1.094,0.036c0.265,0,0.53-0.004,0.797-0.009
		C5.776,6.073,6.047,6.07,6.321,6.07h0.099V5.972c0-0.035,0.002-0.069,0.005-0.103C6.43,5.788,6.437,5.705,6.41,5.625
		C6.099,4.663,5.123,3.965,4.088,3.965z M5.512,5.491C5.38,5.487,5.252,5.483,5.125,5.479C4.659,5.466,4.218,5.453,3.788,5.392
		C3.688,5.378,3.58,5.257,3.474,5.141C3.443,5.106,3.412,5.071,3.38,5.038c0.032-0.031,0.063-0.064,0.095-0.097
		c0.115-0.12,0.223-0.233,0.343-0.267C4.498,4.487,5.076,4.765,5.512,5.491z"/>
	<path fill="#FFFFFF" d="M12.857,5.581c-0.064,0.172-0.066,0.301-0.004,0.395c0.063,0.093,0.18,0.141,0.359,0.145
		c0.143,0.003,0.285,0.004,0.426,0.004l0.535-0.002v0.022l0.104-0.004c0.131-0.005,0.262-0.008,0.393-0.011
		c0.305-0.006,0.621-0.014,0.93-0.059c0.656-0.1,1.02-0.489,0.998-1.074c-0.02-0.514-0.402-0.884-1.023-0.991
		C15.438,3.982,15.297,3.97,15.16,3.97C14.15,3.97,13.225,4.617,12.857,5.581z M13.754,5.507c0.326-0.573,0.805-0.898,1.328-0.898
		c0.184,0,0.367,0.04,0.549,0.117c0.141,0.061,0.281,0.237,0.277,0.285c-0.016,0.133-0.186,0.332-0.266,0.343
		c-0.488,0.066-0.982,0.098-1.506,0.129C14.012,5.49,13.883,5.498,13.754,5.507z"/>
</g>
</svg>
