<?xml version="1.0" encoding="utf-8"?>
<!-- Generator: Adobe Illustrator 16.0.2, SVG Export Plug-In . SVG Version: 6.00 Build 0)  -->
<!DOCTYPE svg PUBLIC "-//W3C//DTD SVG 1.1//EN" "http://www.w3.org/Graphics/SVG/1.1/DTD/svg11.dtd">
<svg version="1.1" id="Capa_1" xmlns="http://www.w3.org/2000/svg" xmlns:xlink="http://www.w3.org/1999/xlink" x="0px" y="0px"
	 width="512px" height="512px" viewBox="0 0 512 512" enable-background="new 0 0 512 512" xml:space="preserve">
<path d="M165.91,209.029c1.1-1.124,1.705-2.633,1.688-4.231c-0.019-1.598-0.658-3.094-1.801-4.211
	c-1.125-1.1-2.61-1.706-4.184-1.706c-1.572,0-3.058,0.605-4.182,1.705c-3.412,3.404-7.971,5.289-12.816,5.289
	s-9.404-1.885-12.835-5.307c-1.157-1.184-2.677-1.823-4.3-1.823c-1.572,0-3.059,0.606-4.184,1.706
	c-1.143,1.117-1.781,2.613-1.799,4.21c-0.018,1.598,0.588,3.107,1.705,4.25l0.096,0.096c5.691,5.698,13.233,8.825,21.26,8.825
	l0.117,2.548v-2.548C152.698,217.833,160.24,214.707,165.91,209.029z"/>
<rect x="172.765" y="393.616" width="11.967" height="11.967"/>
<path d="M505.192,411.093c-0.695-0.272-1.428-0.41-2.178-0.41h-43.402l10.225-5.902c1.846-1.065,2.992-3.051,2.992-5.181v-34.134
	c0-2.131-1.146-4.116-2.991-5.181l-10.232-5.902h43.409c1.598,0,3.101-0.623,4.23-1.753s1.752-2.633,1.752-4.23
	c0-0.75-0.138-1.483-0.41-2.179c-15.038-38.618-51.524-63.568-92.953-63.568c-12.367,0-24.535,2.296-36.164,6.825
	c-15.853,6.173-29.951,16.375-40.771,29.504c-1.416,1.716-2.792,3.501-4.09,5.306l-0.763,1.062h-48.512l-0.547-1.814
	c-7.162-23.771-28.648-40.181-53.466-40.835l-0.379-0.01l-23.938-7.98l-22.272-14.845v-19.672l1.132-0.757
	c18.222-12.188,30.079-31.671,32.532-53.454l0.255-2.265h2.765c17.415,0,31.583-14.168,31.583-31.583s-14.168-31.583-31.583-31.583
	h-2.55V66.8c-0.025-22.094-18.023-40.092-40.12-40.117h-68.264c-22.095,0.025-40.091,18.022-40.116,40.12v53.747h-2.55
	c-17.415,0-31.584,14.168-31.584,31.583s14.169,31.583,31.584,31.583h2.765l0.255,2.265c2.453,21.784,14.311,41.267,32.53,53.454
	l1.133,0.757v19.672l-22.266,14.845l-24.005,8.001l-0.38,0.01c-31.223,0.813-55.711,25.916-55.749,57.148v127.997
	c0.015,12.694,10.355,23.036,23.053,23.051h238.927c12.697-0.015,23.039-10.356,23.054-23.054v-28.146h46.712l0.763,1.063
	c18.694,26.045,49.021,41.594,81.126,41.595c20.932,0,41.016-6.474,58.079-18.722c15.721-11.283,27.745-26.776,34.773-44.805
	c0.583-1.49,0.551-3.117-0.091-4.581C507.854,412.802,506.681,411.675,505.192,411.093z M218.865,132.514l2.553,0.003
	c10.803,0.012,19.602,8.811,19.613,19.613c-0.012,10.809-8.811,19.607-19.613,19.62l-2.553,0.003V132.514z M70.365,171.753
	l-2.553-0.003c-10.803-0.013-19.602-8.812-19.614-19.614c0.013-10.809,8.812-19.607,19.614-19.619l2.553-0.003V171.753z
	 M207.382,287.455l16.583,5.524v134.77h-73.366v-90.505l15.386,15.387c1.129,1.13,2.632,1.752,4.23,1.752
	c0.336,0,0.654-0.025,0.964-0.074c1.888-0.307,3.53-1.515,4.388-3.229L207.382,287.455z M144.615,310.735l-28.15-49.263v-14.954
	l3.402,1.208c7.957,2.824,16.273,4.256,24.718,4.256c8.504,0,16.819-1.432,24.776-4.256l3.403-1.208v14.954L144.615,310.735z
	 M196.635,282.182l-28.059,56.117L152.078,321.8l28.685-50.201L196.635,282.182z M82.332,66.8
	c0.018-15.506,12.644-28.132,28.146-28.15h68.27c15.506,0.018,28.133,12.644,28.149,28.147V94.95H82.332V66.8z M203.199,106.917
	l-2.188,4.377c-10.658,21.497-32.192,34.856-56.194,34.856l-0.202,0l-0.202,0c-24.003,0-45.536-13.358-56.198-34.863l-2.189-4.371
	H203.199z M82.332,177.735v-52.223l4.518,5.485c6.521,7.917,14.463,14.295,23.602,18.957l3.891,1.985l4.049,1.499
	c4.859,1.798,9.92,3.093,15.041,3.85l3.008,0.444l-6.035,18.109c-0.506,1.517-0.391,3.139,0.324,4.568s1.943,2.495,3.459,3
	c0.612,0.205,1.249,0.308,1.895,0.308h17.066c3.299,0,5.983-2.684,5.983-5.983s-2.685-5.983-5.983-5.983h-8.764l4.581-13.749
	l1.686-0.132c6.902-0.541,13.693-2.033,20.185-4.436l4.045-1.497l3.896-1.986c9.137-4.658,17.078-11.035,23.602-18.953l4.519-5.483
	v52.219c-0.017,22.445-12.175,43.229-31.729,54.244l-0.172,0.088c-0.278,0.131-0.546,0.281-0.795,0.448l-0.215,0.129
	c-9.002,4.827-19.158,7.378-29.371,7.378c-10.215,0-20.371-2.551-29.372-7.378l-0.215-0.129c-0.249-0.167-0.517-0.317-0.796-0.448
	l-0.17-0.088C94.508,220.961,82.35,200.177,82.332,177.735z M108.468,271.599l28.685,50.201l-16.499,16.505l-28.059-56.117
	L108.468,271.599z M65.266,292.979l16.586-5.529l31.814,63.625c0.858,1.715,2.501,2.923,4.395,3.23
	c1.943,0.309,3.834-0.324,5.186-1.675l15.386-15.387v90.505h-9.671l-32.869-16.435c-1.654-0.828-3.7-0.828-5.353,0l-25.474,12.737
	V292.979z M14.066,339.865c0.027-21.371,15.239-40.002,36.169-44.305l3.063-0.629v56.018H14.066V339.865z M25.149,478.949
	c-6.106-0.008-11.076-4.979-11.083-11.081V362.916h39.232v70.75c0.004,0.056,0.007,0.108,0.007,0.162
	c0.001,0.168,0.012,0.285,0.021,0.403l0.021,0.203c0.014,0.119,0.033,0.234,0.053,0.349l0.046,0.249
	c0.013,0.058,0.034,0.132,0.054,0.202l0.042,0.156c0.017,0.063,0.034,0.129,0.054,0.191l0.033,0.108l14.42,43.259H25.149z
	 M275.164,467.865c-0.006,6.105-4.977,11.076-11.08,11.084H80.662l-14.064-42.186l26.817-13.408l31.456,15.728
	c0.828,0.414,1.754,0.633,2.677,0.633h102.4c3.3,0,5.983-2.685,5.983-5.983v-70.816h39.232V467.865z M275.164,350.949h-39.232
	v-56.034l3.066,0.635c20.902,4.329,36.112,22.963,36.166,44.309V350.949z M460.862,368.92v20.316l-41.171-23.771l17.594-10.158
	L460.862,368.92z M454.877,399.6l-17.593,10.157l-23.577-13.612v-20.315L454.877,399.6z M287.132,371.449h29.277l-0.245,2.774
	c-0.245,2.77-0.369,5.565-0.369,8.309c0,2.733,0.124,5.529,0.369,8.311l0.244,2.773h-29.276V371.449z M491.708,426.466
	c-15.495,27.109-44.519,43.95-75.745,43.95l-0.379-0.001c-29.821,0.001-57.315-14.937-73.546-39.958
	c-1.104-1.693-2.978-2.708-5.007-2.708h-49.899v-22.166h36.271c3.299,0,5.983-2.685,5.983-5.983c0-0.363-0.033-0.728-0.099-1.084
	c-2.045-10.598-2.045-21.365,0.004-31.984c0.286-1.551-0.053-3.142-0.959-4.458s-2.271-2.201-3.843-2.491
	c-0.357-0.065-0.725-0.1-1.087-0.1h-36.271v-22.167h49.898c2.03,0,3.903-1.014,5.011-2.712c1.801-2.758,3.779-5.447,5.881-7.994
	c16.733-20.312,41.441-31.961,67.787-31.961c20.277,0,40.079,7.113,55.757,20.029c8.153,6.716,14.963,14.763,20.237,23.916
	l2.204,3.823h-56.623c-1.049,0-2.083,0.277-2.992,0.802l-29.56,17.065c-1.846,1.065-2.992,3.051-2.992,5.183V399.6
	c0,2.132,1.146,4.118,2.992,5.184l29.561,17.066c0.908,0.523,1.942,0.801,2.991,0.801h56.604L491.708,426.466z"/>
<path d="M175.348,165.595c1.004,0.693,2.177,1.06,3.391,1.06c1.971,0,3.814-0.966,4.932-2.585c0.908-1.316,1.249-2.906,0.961-4.479
	c-0.289-1.572-1.172-2.938-2.486-3.845c-0.762-0.525-1.648-0.871-2.564-1l-3.662-0.515l-2.098,3.041
	c-0.907,1.315-1.248,2.905-0.96,4.478C173.149,163.322,174.031,164.688,175.348,165.595z"/>
<path d="M104.557,161.51c0.414,2.935,2.957,5.149,5.914,5.149c0.281,0,0.564-0.02,0.846-0.06c3.267-0.46,5.551-3.492,5.09-6.759
	c-0.129-0.917-0.475-1.803-0.999-2.563l-2.101-3.042l-3.659,0.515C106.381,155.211,104.098,158.243,104.557,161.51z"/>
<path d="M400.284,434.06c-28.414-8.488-44.624-38.506-36.14-66.914c5.203-17.424,18.712-30.933,36.137-36.137
	c3.164-0.942,4.972-4.28,4.03-7.442c-0.749-2.52-3.106-4.279-5.731-4.279c-0.575,0-1.151,0.084-1.711,0.251
	c-16.824,5.019-30.689,16.291-39.038,31.739s-10.182,33.224-5.162,50.05c6.36,21.318,22.885,37.843,44.202,44.203
	c0.558,0.165,1.133,0.25,1.709,0.25c2.625,0,4.982-1.76,5.731-4.278c0.456-1.533,0.288-3.15-0.473-4.557
	C403.078,435.54,401.816,434.515,400.284,434.06z"/>
</svg>
