<?xml version="1.0" encoding="utf-8"?>
<!-- Generator: Adobe Illustrator 16.0.2, SVG Export Plug-In . SVG Version: 6.00 Build 0)  -->
<!DOCTYPE svg PUBLIC "-//W3C//DTD SVG 1.1//EN" "http://www.w3.org/Graphics/SVG/1.1/DTD/svg11.dtd">
<svg version="1.1" id="Layer_1" xmlns="http://www.w3.org/2000/svg" xmlns:xlink="http://www.w3.org/1999/xlink" x="0px" y="0px"
	 width="612px" height="792px" viewBox="0 0 612 792" enable-background="new 0 0 612 792" xml:space="preserve">
<path d="M602.816,393.39l-37.623-21.846l-20.784-88.798c-4.71-20.123-22.433-34.176-43.099-34.176H393.639v-22.298
	c0-3.303-2.688-5.991-5.991-5.991H12.191c-3.303,0-5.99,2.688-5.99,5.991v290.594c0,3.304,2.687,5.991,5.99,5.991h44.247l1.01,4.964
	c5.177,25.436,27.782,43.896,53.751,43.896c25.97,0,48.576-18.461,53.753-43.896l1.01-4.964h256.934l1.01,4.964
	c5.177,25.436,27.782,43.897,53.752,43.897c25.971,0,48.576-18.461,53.752-43.896l1.01-4.964h67.392
	c3.304,0,5.991-2.688,5.991-5.991V398.571C605.801,396.445,604.656,394.459,602.816,393.39z M111.198,559.737
	c-23.638,0-42.868-19.231-42.868-42.87c0-23.638,19.23-42.869,42.868-42.869c23.639,0,42.87,19.231,42.87,42.869
	C154.069,540.506,134.837,559.737,111.198,559.737z M381.658,467.158H265.497c-3.304,0-5.991,2.688-5.991,5.991
	c0,3.303,2.688,5.99,5.991,5.99h116.161v31.736H165.961l-1.01-4.964c-5.177-25.436-27.783-43.897-53.753-43.897
	c-25.969,0-48.575,18.462-53.751,43.897l-1.01,4.964H18.182v-75.453h363.477V467.158z M381.658,423.44H18.182V232.264h363.477
	V423.44z M464.361,260.553h36.952c15.073-0.001,27.998,10.248,31.43,24.925l19.65,83.958h-88.032V260.553z M477.656,559.737
	c-22.497,0-41.282-17.578-42.766-40.019l-0.055-0.833l0.167-0.817c0.079-0.389,0.119-0.793,0.119-1.201
	c0-0.405-0.041-0.812-0.121-1.208l-0.165-0.813l0.055-0.829c1.483-22.44,20.269-40.019,42.766-40.019
	c23.639,0,42.87,19.231,42.87,42.869C520.527,540.506,501.295,559.737,477.656,559.737z M593.818,453.016h-35.593v-25.307h35.593
	V453.016z M552.235,415.728c-3.304,0-5.991,2.688-5.991,5.991v37.287c0,3.304,2.688,5.991,5.991,5.991h41.583v45.879h-61.399
	l-1.01-4.964c-5.176-25.437-27.781-43.897-53.752-43.897c-25.97,0-48.575,18.462-53.752,43.897l-1.01,4.964H393.64V260.552h58.738
	v114.876c0,3.303,2.688,5.991,5.99,5.991h99.967l35.48,20.604l0.003,13.705H552.235z"/>
<path d="M224.352,467.158h-10.287c-3.303,0-5.99,2.688-5.99,5.991c0,3.303,2.687,5.99,5.99,5.99h10.287
	c3.304,0,5.991-2.688,5.991-5.99C230.343,469.846,227.656,467.158,224.352,467.158z"/>
</svg>
