<?xml version="1.0" encoding="utf-8"?>
<!-- Generator: Adobe Illustrator 16.0.2, SVG Export Plug-In . SVG Version: 6.00 Build 0)  -->
<!DOCTYPE svg PUBLIC "-//W3C//DTD SVG 1.1//EN" "http://www.w3.org/Graphics/SVG/1.1/DTD/svg11.dtd">
<svg version="1.1" id="Layer_1" xmlns="http://www.w3.org/2000/svg" xmlns:xlink="http://www.w3.org/1999/xlink" x="0px" y="0px"
	 width="90px" height="89.992px" viewBox="0 0 90 89.992" enable-background="new 0 0 90 89.992" xml:space="preserve">
<path fill="#FFFFFF" d="M11.404,49.233c0.011-0.342-0.068-0.675-0.087-1.015c-0.021-0.35-0.065-0.696-0.087-1.045
	c-0.091-1.439-0.102-2.878-0.002-4.317c0.542-7.771,3.369-14.598,8.556-20.41c4.653-5.212,10.406-8.641,17.189-10.331
	c1.417-0.353,2.856-0.597,4.309-0.755c1.333-0.146,2.671-0.219,4.011-0.206c8.389,0.083,16.25,3.175,22.381,8.727
	c4.659,4.219,7.905,9.345,9.735,15.362c0.169,0.555,0.308,1.118,0.46,1.676c0.023,0.087,0.052,0.172,0.078,0.257
	c0.104,0.508,0.211,1.014,0.31,1.523c0.181,0.93,0.308,1.868,0.41,2.81c0.083,0.773,0.11,1.551,0.171,2.326
	c-0.021,0.04-0.021,0.079,0.003,0.118c0,0.681,0,1.362,0,2.042c-0.022,0.039-0.024,0.078-0.002,0.117
	c-0.017,0.249-0.037,0.498-0.05,0.748c-0.18,3.439-0.862,6.779-2.088,9.997c-2.734,7.175-7.368,12.806-13.863,16.897
	c-3.131,1.971-6.516,3.354-10.117,4.197c-1.188,0.278-2.389,0.482-3.601,0.635c-1.92,0.24-3.848,0.302-5.778,0.209
	c-3.971-0.19-7.795-1.053-11.461-2.598c-7.071-2.98-12.94-8.289-16.61-15.023c-0.053-0.098-0.104-0.194-0.152-0.293
	c-0.031-0.064,0.004-0.112,0.083-0.116c0.069-0.004,0.14-0.004,0.209-0.004c1.92,0,3.84,0,5.76,0.001
	c0.339,0,0.271-0.039,0.479,0.258c3.531,5.023,8.182,8.574,13.971,10.624c1.644,0.582,3.333,0.983,5.058,1.245
	c1.926,0.292,3.861,0.379,5.801,0.27c4.584-0.261,8.865-1.55,12.813-3.896c3.913-2.324,7.083-5.419,9.521-9.263
	c0.017-0.024,0.037-0.049,0.047-0.076c0.068-0.164,0.193-0.2,0.361-0.196c0.409,0.009,0.82-0.002,1.229,0.005
	c0.192,0.004,0.379-0.031,0.56-0.088c0.283-0.091,0.471-0.285,0.565-0.572c0.108-0.328,0.049-0.631-0.118-0.918
	c-0.234-0.408-0.477-0.813-0.71-1.219c-0.159-0.277-0.162-0.197-0.032-0.488c0.264-0.595,0.51-1.195,0.73-1.807
	c0.65-1.791,1.119-3.627,1.398-5.514c0.127-0.871,0.211-1.746,0.268-2.623c0.011-0.17,0.006-0.34,0.009-0.51
	c0.024-0.039,0.024-0.078,0.002-0.117c0.035-0.603,0.038-1.203,0-1.803c0.024-0.059,0.024-0.119-0.002-0.177
	c0.017-0.493-0.048-0.981-0.079-1.471c-0.002-0.028-0.018-0.056-0.025-0.084c0-0.079,0.008-0.159,0-0.238
	c-0.045-0.397-0.084-0.795-0.142-1.191c-0.276-1.915-0.731-3.786-1.401-5.603c-2-5.437-5.338-9.873-10.022-13.274
	c-4.39-3.188-9.315-4.933-14.726-5.305c-1.47-0.101-2.938-0.075-4.405,0.057c-1.276,0.115-2.54,0.312-3.788,0.604
	c-4.917,1.149-9.231,3.441-12.925,6.882c-3.176,2.958-5.542,6.471-7.108,10.521c-0.778,2.013-1.311,4.09-1.606,6.227
	c-0.128,0.932-0.206,1.868-0.248,2.808c-0.073,1.622,0.018,3.237,0.221,4.846c0.026,0.207,0.03,0.42,0.107,0.619
	c-0.006,0.104,0.014,0.205,0.047,0.304c-0.121,0.069-0.254,0.044-0.381,0.044c-1.597,0.001-3.194,0.001-4.791,0.001
	c-0.09,0-0.18-0.001-0.27-0.006c-0.066-0.003-0.107-0.046-0.139-0.101C11.451,49.432,11.449,49.33,11.404,49.233z"/>
<path fill="#FFFFFF" d="M29.038,49.089c-0.063-0.03-0.124-0.063-0.188-0.09c-2.01-0.801-3.451-2.205-4.375-4.146
	c-0.733-1.538-1.02-3.167-0.918-4.867c0.084-1.407,0.433-2.743,1.115-3.98c1.211-2.198,3.064-3.536,5.514-4.055
	c0.688-0.146,1.383-0.199,2.085-0.2c0.79-0.001,1.579-0.001,2.369-0.002c4.059-0.003,8.118-0.007,12.176-0.008
	c0.125,0,0.259-0.043,0.373,0.048c-0.012,0.126-0.1,0.213-0.162,0.314c-1.223,1.97-2.445,3.94-3.673,5.908
	c-0.28,0.448-0.145,0.383-0.675,0.383c-3.409,0.002-6.817,0.002-10.227,0.001c-0.33,0-0.659,0.017-0.98,0.103
	c-0.826,0.221-1.43,0.889-1.535,1.7c-0.148,1.157,0.564,2.149,1.709,2.377c0.236,0.046,0.475,0.06,0.715,0.06
	c2.379-0.002,4.758-0.001,7.138-0.001c0.994,0,1.975,0.112,2.938,0.362c1.437,0.375,2.725,1.029,3.819,2.044
	c0.734,0.681,1.314,1.476,1.748,2.378c0.043,0.09,0.092,0.177,0.137,0.266c0.164,0.43,0.319,0.861,0.426,1.311
	c0.588,2.485-0.064,5.084-1.752,6.928c-0.811,0.885-1.779,1.541-2.882,2.002c-0.938,0.394-1.916,0.627-2.925,0.74
	c-0.568,0.063-1.137,0.086-1.706,0.086c-9.199,0-18.396,0-27.594,0c-0.121,0-0.24,0-0.36-0.006c-0.073-0.004-0.099-0.06-0.063-0.127
	c0.043-0.078,0.091-0.154,0.139-0.23c1.325-2.153,2.651-4.309,3.978-6.461c0.207-0.334,0.134-0.285,0.519-0.285
	c7.738,0,15.477,0.002,23.216,0.004c0.179,0,0.359-0.001,0.54-0.005c0.221-0.005,0.436-0.056,0.642-0.138
	c0.159-0.064,0.302-0.153,0.423-0.276c0.339-0.345,0.343-0.835,0.004-1.183c-0.218-0.223-0.496-0.332-0.795-0.387
	c-0.207-0.039-0.417-0.049-0.626-0.049c-2.26,0.002-4.52,0.001-6.779,0c-0.35,0-0.7-0.006-1.05-0.01
	c-0.04-0.001-0.08-0.003-0.12-0.006c-0.217-0.031-0.434-0.063-0.65-0.094c-0.526-0.076-1.038-0.201-1.54-0.373
	C29.136,49.111,29.086,49.101,29.038,49.089z"/>
<path fill="#FFFFFF" d="M55.904,47.617c-0.045-0.088-0.086-0.18-0.137-0.264c-1.146-1.9-2.291-3.801-3.437-5.701
	c-0.042-0.068-0.082-0.136-0.127-0.203c-0.044-0.065-0.088-0.063-0.138,0.01c-0.047,0.065-0.088,0.133-0.131,0.201
	c-0.789,1.25-1.58,2.5-2.369,3.75c-0.049,0.076-0.096,0.153-0.15,0.224c-0.029,0.037-0.072,0.031-0.098-0.008
	c-0.049-0.076-0.092-0.154-0.139-0.232c-1.147-1.942-2.783-3.299-4.905-4.064c-0.375-0.135-0.364-0.101-0.166-0.427
	c1.31-2.15,2.603-4.311,3.942-6.444c0.202-0.322,0.408-0.642,0.626-0.952c0.402-0.57,0.896-1.052,1.507-1.394
	c1.517-0.845,3-0.772,4.435,0.201c0.614,0.417,1.082,0.976,1.464,1.605c0.395,0.65,0.781,1.303,1.167,1.957
	c1.224,2.075,2.442,4.151,3.667,6.226c0.061,0.103,0.104,0.217,0.197,0.298c0.056,0.105,0.109,0.212,0.169,0.316
	c3.04,5.192,6.081,10.386,9.122,15.581c0.076,0.131,0.199,0.248,0.188,0.42c-0.142,0.072-0.293,0.033-0.438,0.033
	c-2.359,0.002-4.719,0.002-7.079,0.002c-0.041,0-0.08,0-0.121,0c-0.365-0.004-0.302,0.037-0.491-0.278
	c-2.111-3.501-4.222-7.003-6.333-10.505C56.061,47.849,55.98,47.733,55.904,47.617z"/>
<path fill="#9150FF" d="M-581.146-406.316c1.828,3.911,1.766,7.855,0.203,11.825C-584.41-398.374-584.511-402.315-581.146-406.316z"
	/>
<path fill="#9150FF" d="M-200.012-402.555c-1.581-2.568-1.651-5.174-0.19-7.818C-197.65-407.828-197.548-405.223-200.012-402.555z"
	/>
<path fill="#9150FF" d="M-580.982-274.35c1.475,2.634,1.507,5.238-0.154,7.809C-583.57-269.193-583.509-271.795-580.982-274.35z"/>
<path fill="#9150FF" d="M-200.148-258.536c-1.469-2.629-1.312-5.219,0.185-7.777C-197.536-263.661-197.625-261.069-200.148-258.536z
	"/>
</svg>
