<?xml version="1.0" encoding="utf-8"?>
<!-- Generator: Adobe Illustrator 16.0.2, SVG Export Plug-In . SVG Version: 6.00 Build 0)  -->
<!DOCTYPE svg PUBLIC "-//W3C//DTD SVG 1.1//EN" "http://www.w3.org/Graphics/SVG/1.1/DTD/svg11.dtd">
<svg version="1.1" id="Layer_1" xmlns="http://www.w3.org/2000/svg" xmlns:xlink="http://www.w3.org/1999/xlink" x="0px" y="0px"
	 width="512px" height="512px" viewBox="0 0 512 512" enable-background="new 0 0 512 512" xml:space="preserve">
<title>value customers users viewer</title>
<g>
	<path d="M467.133,251.529c-41.063,0-78.479,20.795-100.086,55.627l-2.641,4.256H181.848c-17.591,0-34.127,6.85-46.563,19.289
		L46.744,419.24c-2.326,2.326-2.326,6.117,0.002,8.447c36.205,36.199,73.844,73.564,74.837,74.543
		c1.161,1.154,2.651,1.77,4.237,1.77c1.591,0,3.088-0.617,4.215-1.74l59.416-59.141h129.13c35.76,0,68.271-19.668,84.844-51.326
		l0.992-1.891c14.049-26.807,48.797-93.098,67.998-129.623c0.967-1.842,0.9-4.09-0.174-5.868
		C471.167,252.633,469.212,251.529,467.133,251.529z M448.366,280.385c-19.875,37.863-44.851,85.516-52.896,100.867l-2.629,5.016
		c-14.502,27.695-42.959,44.91-74.262,44.91H186.987c-1.592,0-3.088,0.617-4.212,1.734l-56.96,56.699l-6.35-6.311
		c-8.192-8.141-29.824-29.648-53.686-53.479l-6.371-6.363l84.315-84.316c10.185-10.184,23.723-15.791,38.122-15.791h176.36
		l-18.396,35.102c-4.15,7.92-12.286,12.842-21.23,12.842H216.928c-3.292,0-5.971,2.678-5.971,5.971c0,3.291,2.679,5.971,5.971,5.971
		h101.653c13.397,0,25.588-7.373,31.811-19.242l0.011,0.006c0.918-1.779,4.844-9.271,23.096-44.098
		c13.441-25.426,36.918-44.498,64.428-52.354l20.209-5.771L448.366,280.385z"/>
	<path d="M172.016,263.471h179.649c3.291,0,5.971-2.68,5.971-5.971V76.853c0-3.292-2.68-5.971-5.971-5.971h-53.912v-23.97
		C297.753,27.11,281.642,11,261.84,11s-35.912,16.11-35.912,35.912v23.971h-53.912c-3.292,0-5.971,2.678-5.971,5.971V257.5
		C166.045,260.791,168.724,263.471,172.016,263.471z M237.869,46.912c0-13.217,10.753-23.971,23.971-23.971
		s23.971,10.753,23.971,23.971v23.971h-47.941V46.912z M177.987,82.824h47.94v23.971c0,3.292,2.679,5.971,5.971,5.971
		s5.972-2.678,5.972-5.971V82.824h47.94v23.971c0,3.292,2.68,5.971,5.972,5.971c3.291,0,5.971-2.678,5.971-5.971V82.824h47.941
		v168.707H177.987V82.824z"/>
</g>
</svg>
