<?xml version="1.0" encoding="utf-8"?>
<!-- Generator: Adobe Illustrator 16.0.2, SVG Export Plug-In . SVG Version: 6.00 Build 0)  -->
<!DOCTYPE svg PUBLIC "-//W3C//DTD SVG 1.1//EN" "http://www.w3.org/Graphics/SVG/1.1/DTD/svg11.dtd">
<svg version="1.1" id="Layer_1" xmlns="http://www.w3.org/2000/svg" xmlns:xlink="http://www.w3.org/1999/xlink" x="0px" y="0px"
	 width="383.021px" height="203.979px" viewBox="0 0 383.021 203.979" enable-background="new 0 0 383.021 203.979"
	 xml:space="preserve">
<g>
	<path fill="#75828D" d="M38.512,141.925c18.217-0.519,36.459-0.168,54.69-0.096c8.199,0.031,15.451,2.893,21.72,8.119
		c1.338,1.114,2.624,1.503,4.302,1.502c53.858-0.032,107.717-0.015,161.575-0.07c2.046-0.002,2.7,0.459,2.658,2.601
		c-0.142,7.138-0.004,14.28-0.09,21.42c-0.021,1.7,0.478,2.294,2.188,2.187c2.119-0.134,4.254-0.069,6.379-0.019
		c1.084,0.026,1.675-0.208,1.689-1.479c0.021-1.662,0.191-3.33,0.421-4.979c1.215-8.731,4.7-16.367,11.578-22.048
		c14.255-11.773,39.098-8.548,47.635,12.253c2.195,5.348,3.164,10.907,3.143,16.652c-0.005,1.297,0.298,1.76,1.735,1.932
		c3.199,0.381,6.351,0.075,9.514-0.15c7.902-0.563,14.793-7.354,15.202-15.275c0.408-7.893,0.145-15.777-1.513-23.554
		c-2.512-11.785-5.038-23.566-7.519-35.358c-0.217-1.034-0.688-1.76-1.454-2.462c-2.943-2.692-6.771-3.404-10.36-4.416
		c-16.575-4.675-33.479-7.867-50.468-10.606c-1.379-0.223-2.07-0.773-2.521-2.124c-2.043-6.103-4.215-12.162-6.326-18.242
		c-2.035-5.86-4.053-11.727-6.148-17.792c2.5,0,4.762-0.03,7.021,0.011c1.267,0.024,1.561-0.338,1.137-1.617
		c-1.594-4.809-4.591-8.169-9.578-9.468c-1.994-0.52-3.229-1.467-3.931-3.545c-1.017-3.01-2.443-5.884-3.753-8.79
		c-0.885-1.964-2.106-3.738-3.921-4.935c-2.216-1.461-4.474-2.885-6.828-4.102c-9.899-5.115-20.416-8.598-31.191-11.256
		c-13.397-3.306-26.828-6.534-40.791-6.193c-3.294,0.08-4.651,1.304-4.988,4.604c-0.231,2.263-0.436,4.53-0.737,6.784
		c-1.367,10.224-2.623,20.426-2.559,30.801c0.183,29.701,0.045,59.403,0.108,89.105c0.004,1.904-0.494,2.378-2.384,2.373
		c-24.991-0.065-49.984-0.058-74.977-0.011c-1.535,0.004-2.512-0.401-3.328-1.734c-1.305-2.134-2.782-4.166-4.236-6.206
		c-1.657-2.324-3.945-3.486-6.806-3.486c-18.155-0.002-36.312,0.006-54.467-0.009c-2.979-0.002-5.258,1.25-6.951,3.641
		c-1.403,1.983-2.875,3.928-4.134,6.001c-0.865,1.424-1.923,1.808-3.533,1.798c-11.243-0.07-22.485-0.04-33.729-0.03
		c-0.926,0-1.997-0.341-1.987,1.327c0.051,9.04,0.022,18.08,0.031,27.119c0,0.51-0.086,1.219,0.647,1.238
		c2.198,0.061,4.432,0.25,6.586-0.061c1.231-0.178,1.358-1.879,1.96-2.898C15.824,149.194,25.464,142.296,38.512,141.925z
		 M367.915,142.408c4.039,0.086,6.808,4.883,5.041,8.396c-0.262,0.521-0.674,0.537-1.123,0.553
		c-5.135,0.166-10.188-0.023-14.596-3.197c-2.521-1.816-5.063-3.607-8.12-5.784C355.806,142.375,361.863,142.279,367.915,142.408z
		 M248.931,50.144c12.146,0.044,24.292,0.042,36.438-0.002c1.169-0.004,1.752,0.334,2.127,1.456
		c3.794,11.344,7.633,22.674,11.449,34.01c0.067,0.2,0.026,0.438,0.046,0.881c-5.062-0.707-10.058-1.379-15.044-2.109
		c-10.037-1.47-20.072-2.948-30.101-4.475c-3.641-0.554-5.224-2.459-5.416-6.132c-0.382-7.27-0.757-14.54-1.224-21.805
		C247.114,50.534,247.528,50.139,248.931,50.144z M234.832,77.672c0-1.341,0.033-2.847,1.811-2.829
		c1.812,0.018,1.725,1.562,1.725,2.88c-0.002,6.528-0.001,13.058-0.001,19.586c0,6.604,0.002,13.209-0.001,19.814
		c-0.001,1.312,0.099,2.851-1.762,2.821c-1.814-0.028-1.762-1.58-1.763-2.873C234.827,103.938,234.832,90.805,234.832,77.672z"/>
	<path fill="#76838D" d="M66.493,183.511c4.866,15.712,18.253,22.706,31.515,19.82c11.995-2.609,19.944-12.932,20.576-24.231
		c0.774-13.868-9.332-24.803-20.421-27.038c-7.028-1.417-13.581-0.528-19.684,3.217c-6.068,3.725-9.766,9.271-11.942,16.104
		c-2.14-6.938-5.991-12.454-12.138-16.251c-6.291-3.886-13.073-4.741-20.149-3.029c-11.362,2.75-19.446,13.036-19.77,24.888
		c-0.318,11.703,7.09,22.217,18.024,25.718c5.803,1.858,11.582,1.638,17.203-0.391C58.435,199.167,63.771,192.691,66.493,183.511z
		 M92.909,165.078c6.557,0.049,11.984,5.765,11.987,12.626c0.004,6.922-5.472,12.527-12.265,12.555
		c-7.147,0.029-12.834-5.506-12.84-12.5C79.784,170.436,85.386,165.022,92.909,165.078z M40.914,190.26
		c-7.216-0.002-12.71-5.455-12.694-12.6c0.015-7.25,5.521-12.598,12.953-12.58c6.621,0.016,12.233,5.87,12.191,12.719
		C53.323,184.586,47.65,190.263,40.914,190.26z"/>
	<path fill="#76838D" d="M268.918,160.573c-22.856,0.079-45.714,0.05-68.57,0.05c-23.009,0-46.019,0.026-69.026-0.048
		c-1.922-0.006-2.423,0.491-2.346,2.374c0.155,3.79,0.031,7.592,0.05,11.388c0.028,5.692,3.749,9.445,9.411,9.446
		c41.233,0.009,82.467,0.008,123.701,0c5.629-0.001,9.452-3.785,9.501-9.386c0.032-3.721-0.154-7.451,0.067-11.159
		C271.844,160.921,271.021,160.566,268.918,160.573z"/>
	<path fill="#76828D" d="M324.773,151.382c-14.574-0.066-26.442,11.604-26.551,26.107c-0.108,14.584,11.885,26.474,26.711,26.479
		c14.222,0.006,25.921-11.752,26.021-26.149C351.056,163.256,339.362,151.448,324.773,151.382z M324.609,190.21
		c-7.009,0.004-12.732-5.63-12.687-12.487c0.048-6.921,5.643-12.694,12.286-12.677c7.349,0.02,13.059,5.543,13.04,12.615
		C337.23,184.559,331.543,190.207,324.609,190.21z"/>
</g>
</svg>
