<?xml version="1.0" encoding="utf-8"?>
<!-- Generator: Adobe Illustrator 16.0.2, SVG Export Plug-In . SVG Version: 6.00 Build 0)  -->
<!DOCTYPE svg PUBLIC "-//W3C//DTD SVG 1.1//EN" "http://www.w3.org/Graphics/SVG/1.1/DTD/svg11.dtd">
<svg version="1.1" id="Layer_1" xmlns="http://www.w3.org/2000/svg" xmlns:xlink="http://www.w3.org/1999/xlink" x="0px" y="0px"
	 width="470.754px" height="143.573px" viewBox="0 0 470.754 143.573" enable-background="new 0 0 470.754 143.573"
	 xml:space="preserve">
<g>
	<path fill="#76828D" d="M60.705,117.6c7.428-0.631,7.438-0.122,7.577-7.372c0.048-2.493,0.221-4.991,0.477-7.472
		c1.602-15.504,9.743-26.446,24.004-32.253c14.677-5.977,28.502-3.446,40.586,6.785c10.483,8.876,13.916,20.867,13.217,34.088
		c-0.274,5.197,1.385,6.233,6.331,6.219c62.481-0.176,124.964-0.115,187.445-0.115c12.308,0,12.308,0,12.55-12.469
		c0.373-19.218,15.263-35.875,33.504-37.481c20.574-1.812,38.011,11.297,41.779,31.191c0.945,4.988,0.639,9.962,0.59,14.93
		c-0.03,3.155,1.024,4.042,4.03,3.879c5.818-0.316,11.691,0.021,17.469-0.591c4.928-0.522,10.075,0.655,14.785-1.604
		c2.76-1.324,5.126-2.613,2.022-6.249c-2.128-2.492-1.945-6.976,0.545-7.944c3.717-1.445,3.126-3.667,3.073-6.126
		c-0.102-4.738-0.675-9.395-1.38-14.122c-1.921-12.874-9.169-20.148-20.849-24.137c-35.345-12.071-71.493-19.554-109.022-19.108
		c-2.249,0.026-4.006-0.489-5.99-1.682c-21.124-12.693-43.323-23.376-65.22-34.627c-4.405-2.263-8.305-1.489-12.148,1.063
		c-1.695,1.125-3.649,2.584-3.524,4.551c0.106,1.656,2.623,1.672,4.082,2.372c1.646,0.791,3.405,1.34,5.079,2.075
		c8.399,3.686,16.664,7.631,23.421,14.025c1.447,1.37,3.71,2.658,2.259,5.41c-1.751,3.32-1.978,6.766,0.46,11.041
		c-10.563-3.104-1.128-8.784-3.581-12.952c-2.709,1.813-3.911,4.634-4.669,7.431c-0.972,3.584-2.854,4.532-6.462,4.335
		c-20.946-1.146-41.906-2.063-62.861-3.04c-5.795-0.271-6.267-0.795-5.249-6.39c0.268-1.468,0.619-2.935,1.088-4.351
		c1.442-4.362,0.651-8.544-0.891-12.681c-1.089-2.922-3.383-3.981-6.302-3.842c-3.198,0.152-2.792,2.752-3.034,4.807
		c-0.641,5.45-1.698,10.909-1.672,16.359c0.022,4.701-1.158,6.321-6.1,6.005c-19.436-1.243-38.894-2.146-58.348-3.067
		c-2.832-0.134-3.687-1.329-3.697-4.006c-0.018-4.321-0.304-8.644-0.573-12.96c-0.223-3.555-2.32-4.328-5.523-3.701
		c-6.251,1.223-8.642,4.316-9.921,14.216c-0.338,2.619-0.801,2.853-3.51,2.761c-16.968-0.578-33.959-1.118-50.904,0.526
		c-13.221,1.283-26.415,2.843-39.642,4.054c-2.764,0.253-5.618,0-6.622,3.118c-1.072,3.328-3.148,6.971,0.55,10.065
		c1.301,1.088,0.919,2.431,0.856,3.662c-0.152,2.987-0.578,5.959-0.776,8.945c-0.301,4.52-1.783,8.069-6.719,9.241
		c-1.804,0.428-3.522,1.087-3.271,3.596c0.607,6.033-0.497,12.362,3.536,17.765c1.337,1.792,1.844,3.925,0.173,5.992
		c-2.877,3.56-0.376,5.785,2.45,6.764c2.559,0.886,3.85,2.025,4.421,4.561c0.826,3.662,3.561,5.403,6.976,6.38
		c3.636,1.04,7.282,0.512,10.903,0.125C39.334,114.436,49.813,118.524,60.705,117.6z"/>
	<path fill="#76838E" d="M106.953,143.573c20.52-0.013,36.987-16.298,37.004-36.594c0.016-20.35-16.317-36.559-36.892-36.611
		c-20.629-0.052-37.138,16.077-37.2,36.346C69.802,127.43,86.058,143.586,106.953,143.573z M106.169,80.622
		c15.374,0.164,26.952,11.374,27.02,26.158c0.065,14.336-11.749,26.583-25.607,26.543c-14.969-0.043-27.132-11.694-27.312-26.161
		C80.098,93.311,92.622,80.477,106.169,80.622z"/>
	<path fill="#76838E" d="M391.186,70.368c-20.62-0.061-37.235,16.117-37.282,36.301c-0.049,20.715,16.229,36.908,37.092,36.902
		c20.704-0.007,37.043-16.335,37.089-37.064C428.127,86.732,411.48,70.428,391.186,70.368z M391.462,133.319
		c-15.234-0.179-26.808-11.554-26.807-26.35c0.001-14.073,11.692-26.26,25.279-26.351c15.409-0.103,27.309,11.379,27.313,26.353
		C417.252,121.234,405.267,133.48,391.462,133.319z"/>
	<path fill="#7D8A94" d="M123.663,110.397c-2.089,0.717-4.495-0.927-6.008,1.32c-0.412,0.613,6.651,7.829,7.425,7.489
		c2.749-1.21,3.479-4.129,3.586-6.472C128.85,108.708,125.165,111.576,123.663,110.397z"/>
	<path fill="#7E8A94" d="M123.47,103.624c1.104-1.913,5.188,2.069,5.154-2.367c-0.018-2.308-0.931-5.202-3.551-6.515
		c-0.723-0.361-7.797,6.812-7.422,7.468C118.949,104.478,121.224,102.841,123.47,103.624z"/>
	<path fill="#798590" d="M97.302,92.151c1.506,1.445,2.677,3.341,5.705,4.388c0-2.833-0.211-5.129,0.044-7.372
		c0.509-4.471-1.31-4.558-4.731-3.04C93.333,88.34,93.236,88.25,97.302,92.151z"/>
	<path fill="#798691" d="M110.83,92.586c-0.098,1.117,0.105,2.262,0.204,3.938c3.014-2.992,5.533-5.493,8.123-8.064
		c-2.07-1.666-4.951-4.024-7.613-2.842C109.596,86.482,111.043,90.169,110.83,92.586z"/>
	<path fill="#798691" d="M102.956,123.773c0.226-1.912,0.053-3.872,0.053-5.811c-0.704-0.508-1.408-1.016-2.111-1.523
		c-1.88,2.443-3.757,4.89-5.643,7.328c-0.475,0.614-1.354,1.247-0.346,1.991c2.128,1.571,4.582,3.313,7.126,2.752
		C104.104,128.055,102.763,125.415,102.956,123.773z"/>
	<path fill="#798590" d="M117.087,122.175c-1.678-1.499-2.692-3.74-4.005-5.648c-2.747,3.369-2.224,5.506-2.249,7.562
		c-0.066,5.477,0.321,5.577,5.395,3.431C119.722,126.04,119.924,124.709,117.087,122.175z"/>
	<path fill="#7A8791" d="M94.923,113.279c0.714-0.886,1.837-2.237-0.114-2.492c-3.071-0.402-6.938-1.421-9.144,0.408
		c-2.279,1.889,0.868,4.652,1.682,7.017c0.148,0.431,0.61,0.752,1.823,2.174C91.196,117.884,93.064,115.585,94.923,113.279z"/>
	<path fill="#7A8791" d="M90.376,103.518c1.852-0.729,4.118,0.977,5.4-1.326c0.313-0.563-6.392-7.623-7.044-7.344
		c-2.771,1.188-3.594,4.078-3.592,6.425C85.146,105.194,88.755,102.394,90.376,103.518z"/>
	<path fill="#7E8A95" d="M107.017,110.113c1.854-0.096,3.025-1.242,3.049-3.254c-0.055-2.049-1.373-3.101-3.15-3.223
		c-2.303-0.158-3.204,1.408-3.155,3.528C103.807,109.241,105.163,110.208,107.017,110.113z"/>
	<path fill="#7C8993" d="M378.942,110.725c-3.228-0.074-7.364-1.612-9.45,0.752c-1.778,2.018,1.184,5.035,2.815,8.403
		c2.61-2.469,4.901-4.586,7.131-6.766C380.447,112.128,380.786,110.767,378.942,110.725z"/>
	<path fill="#798690" d="M397.033,116.401c-0.729,0.534-1.459,1.068-2.188,1.602c0,1.953-0.169,3.926,0.051,5.854
		c0.188,1.65-1.135,4.328,0.959,4.752c2.533,0.514,5.025-1.16,7.132-2.794c0.976-0.758,0.128-1.392-0.354-2.021
		C400.757,121.336,398.898,118.866,397.033,116.401z"/>
	<path fill="#798691" d="M380.773,91.788c1.709,1.442,2.691,3.745,4.003,5.658c2.732-3.578,1.993-5.891,2.295-8.104
		c0.667-4.899-1.563-4.619-5.008-3.098C378.918,87.635,377.169,88.743,380.773,91.788z"/>
	<path fill="#798590" d="M394.875,92.512c-0.119,1.129,0.08,2.292,0.179,4.338c3.781-2.492,6.081-5.253,8.622-7.979
		c-2.454-2.111-5.377-4.378-8.032-3.276C393.59,86.446,395.129,90.113,394.875,92.512z"/>
	<path fill="#798590" d="M386.997,121.515c0.109-1.199,0.538-2.624-0.505-3.645c-2.472,2.629-4.912,5.224-7.437,7.908
		c1.573,1.356,4.461,3.628,7.115,2.588C388.373,127.503,386.781,123.891,386.997,121.515z"/>
	<path fill="#7A8791" d="M408.408,110.691c-2.112,0.125-4.637-1.36-6.329,1.021c-0.368,0.518,6.273,7.641,6.993,7.371
		c2.893-1.083,2.72-4.124,3.862-6.212C412.646,109.329,409.978,110.6,408.408,110.691z"/>
	<path fill="#7C8893" d="M373.991,103.544c1.919-0.847,4.357,1.044,5.82-1.354c0.34-0.559-6.356-7.635-7.034-7.349
		c-2.792,1.179-3.472,4.066-3.601,6.447C368.971,105.08,372.416,102.53,373.991,103.544z"/>
	<path fill="#7A8792" d="M402.13,101.948c1.108,2.976,3.725,0.597,5.504,1.64c1.635-1.176,5.31,1.624,5.052-2.523
		c-0.143-2.281-1.106-4.839-3.349-6.282C408.802,94.438,401.866,101.242,402.13,101.948z"/>
	<path fill="#7E8A95" d="M390.854,103.542c-1.981,0.187-2.978,1.303-3.069,3.244c-0.096,2.026,1.018,3.229,2.912,3.333
		c1.843,0.102,3.212-0.856,3.386-2.889C394.279,104.927,392.84,103.989,390.854,103.542z"/>
</g>
</svg>
