<?xml version="1.0" encoding="utf-8"?>
<!-- Generator: Adobe Illustrator 16.0.2, SVG Export Plug-In . SVG Version: 6.00 Build 0)  -->
<!DOCTYPE svg PUBLIC "-//W3C//DTD SVG 1.1//EN" "http://www.w3.org/Graphics/SVG/1.1/DTD/svg11.dtd">
<svg version="1.1" id="Layer_1" xmlns="http://www.w3.org/2000/svg" xmlns:xlink="http://www.w3.org/1999/xlink" x="0px" y="0px"
	 width="470.86px" height="144.955px" viewBox="0 0 470.86 144.955" enable-background="new 0 0 470.86 144.955"
	 xml:space="preserve">
<g>
	<path fill="#76828D" d="M327.885,119.096c-0.117,0.903-0.277,1.603-0.529,2.136C327.756,120.64,327.885,119.903,327.885,119.096z"
		/>
	<path fill="#76828D" d="M6.082,108.632c2.259,1.397,4.732,2.441,7.038,3.769c2.761,1.588,5.806,3.279,6.405,6.612
		c0.581,3.229,2.376,3.326,4.885,3.315c14.165-0.063,28.33-0.03,42.495-0.03c10.563,0,10.563,0,11.293-10.321
		c0.164-6.443-0.804-12.916,1.524-19.259c6.432-17.53,23.008-26.451,41.068-25.432c16.061,0.906,28.136,8.287,35.146,23.111
		c1.427,3.015,2.474,6.182,2.203,9.616l-0.055-0.115c0,0.002,0,0.004,0,0.006c1.765,5.83,0.817,11.822,0.887,17.731
		c0.04,3.354,0.796,4.615,4.425,4.607c53.112-0.107,106.226-0.113,159.338,0.009c3.898,0.009,4.709-1.351,4.682-4.916
		c-0.043-5.791-0.824-11.649,0.723-17.385c0.547-8.02,4.129-14.667,9.564-20.33c10.178-10.604,22.895-13.116,37.049-11.858
		c15.74,1.399,29.867,13.137,33.461,28.521c1.691,7.246,0.773,14.599,1.029,21.903c0.07,1.992-0.34,4.124,2.811,4.116
		c17.498-0.042,34.994-0.004,52.492-0.045c2-0.005,3.629-0.569,3.129-3.257c-0.816-4.39,0.799-14.778,2.975-19.45
		c0.561-1.202-0.113-1.854-0.771-2.596c-6.537-7.371-13.244-14.356-22.699-18.304c-14.289-5.965-28.697-11.575-43.424-16.326
		c-28.988-9.352-58.148-17.985-88.705-20.688c-3.73-0.33-7.541-0.896-10.65-3.681c-11.935-10.679-25.113-19.749-38.029-29.161
		c-7-5.102-14.233-8.477-23.31-8.638c-20.338-0.361-40.621-0.31-60.808,2.422c-17.061,2.31-33.251,7.857-49.558,13.149
		c-18.911,6.137-36.534,15.414-55.459,21.591c-9.229,3.012-16.875,3.896-24.599-2.28c-0.945-0.756-2.012-1.095-3.239-1.076
		c-12.503,0.193-24.928-1.236-37.395-1.785c-2.511-0.11-6.386-1.436-7.34,0.884c-1.098,2.666,2.388,4.7,4.454,6.467
		c6.834,5.842,13.292,12.072,19.789,18.277c3.325,3.177,3.049,4.825-0.691,7.177c-7.706,4.845-13.361,11.003-12.033,21.165
		c0.407,3.112-2.355,2.512-4.205,2.813C-0.225,90.945,0.027,90.948,0,101.78C-0.012,106.406,3.424,106.986,6.082,108.632z
		 M255.988,8.824c1.364-1.305,3.425-2.189,5.464-0.813c2.62,1.768,5.21,3.58,7.811,5.376c11.504,7.948,22.802,16.171,33.476,25.221
		c0.848,0.719,2.107,1.109,2.15,2.902c-1.752,0.551-3.607,1.076-5.42,1.717c-2.498,0.881-3.881,0.409-4.688-2.468
		c-1.235-4.407-4.532-6.773-9.089-5.839c-5.442,1.115-8.763-1.83-12.019-5.208c-5.426-5.631-10.841-11.273-16.108-17.05
		C256.68,11.69,253.988,10.736,255.988,8.824z M244.509,14.504c4.233,0.377,6.28,3.563,8.858,5.956
		c7.659,7.109,15.104,14.451,22.585,21.752c0.879,0.857,1.453,2.026,2.739,3.867c-7.798,0-14.692-0.021-21.585,0.015
		c-1.625,0.008-2.313-0.998-2.922-2.243c-4.151-8.486-8.26-16.996-12.503-25.437C239.963,14.996,240.702,14.165,244.509,14.504z
		 M175.621,19.236c11.146-3.852,22.764-4.609,34.37-5.194c7.468-0.376,14.973,0.038,22.455-0.139c3.01-0.071,4.9,0.803,6.245,3.628
		c3.993,8.394,8.172,16.699,12.361,24.997c1.474,2.92,0.575,3.651-2.471,3.615c-10.48-0.124-20.963-0.048-31.444-0.048
		c-10.481,0.001-20.965-0.119-31.442,0.075c-3.04,0.057-4.374-0.978-5.319-3.799c-2.109-6.294-4.436-12.529-7.012-18.646
		C172.173,20.898,173.178,20.081,175.621,19.236z M122.67,37.268c13.424-6.175,27.144-11.571,41.41-15.536
		c2.459-0.684,3.237,0.251,3.957,2.226c2.272,6.234,4.545,12.472,7.008,18.632c1.089,2.723,0.414,3.478-2.412,3.404
		c-5.645-0.146-11.296-0.043-18.174-0.043c-9.413,0.148-20.03-0.197-30.526-2.121c-1.653-0.304-4.127-0.046-4.591-2.101
		C118.832,39.472,120.904,38.08,122.67,37.268z"/>
	<path fill="#76838E" d="M328.49,108.478c0.008,1.524,0.119,3.05,0.442,4.575c5.307,22.554,25.748,35.672,48.213,30.94
		c16.848-3.549,30.055-18.137,30.957-34.19c1.016-18.104-9.637-33.588-27.063-39.122c-22.391-7.111-46.844,5.13-52.053,29.251
		c-0.068,1.34-0.186,2.679-0.291,4.019C328.735,105.459,328.626,106.969,328.49,108.478z M368.795,79.634
		c15.609,0.303,28.486,12.747,28.166,27.22c-0.346,15.589-13.324,27.385-29.822,27.103c-15.221-0.261-27.408-12.835-27.158-28.019
		C340.227,91.072,353.09,79.33,368.795,79.634z"/>
	<path fill="#76838E" d="M328.49,108.478c0.137-1.509,0.245-3.019,0.206-4.527C328.577,105.459,328.482,106.969,328.49,108.478z"/>
	<path fill="#76838E" d="M157.461,102.038c-0.184-0.54-0.309-1.106-0.41-1.666c-0.407-3.61-1.434-7.084-2.955-10.323
		c-3.067-5.801-7.263-10.818-13.133-14.737c-4.744-3.167-9.868-5.147-15.068-6.091c-3.986-0.527-7.869-0.685-11.64-0.396
		c-15.596,1.722-29.816,12.342-34.292,28.707c-0.349,1.995-0.532,4.079-0.536,6.256c-0.004,2.319,0.516,4.767-0.487,6.968
		c-0.006,0.413-0.011,0.827-0.026,1.24c0.908,5.653,2.853,10.93,6.188,15.585c9.346,13.044,22.362,18.859,38.018,17
		c17.183-2.041,28.845-11.757,34.169-28.533c0.357-1.563,0.599-3.132,0.768-4.704C157.944,108.232,157.827,105.121,157.461,102.038z
		 M117.33,133.956c-15.31-0.275-27.512-12.789-27.252-27.95c0.254-14.849,13.111-26.623,28.797-26.373
		c15.893,0.253,28.377,12.549,28.104,27.68C146.706,122.55,133.687,134.25,117.33,133.956z"/>
	<path fill="#76838E" d="M157.051,100.372c0.102,0.56,0.227,1.126,0.41,1.666c0.366,3.083,0.483,6.194,0.594,9.306
		c0.407-3.796,0.332-7.614,0.03-11.445c0,0.002,0.001,0.004,0.001,0.006c0-0.002,0-0.004,0-0.006l0.055,0.115
		c-1.073-3.519-2.399-6.853-4.045-9.965C155.617,93.288,156.644,96.762,157.051,100.372z"/>
	<path fill="#76838E" d="M114.254,68.825c3.771-0.289,7.654-0.132,11.64,0.396C122.014,68.518,118.095,68.4,114.254,68.825z"/>
	<path fill="#76838E" d="M78.939,110.756c1.003-2.201,0.483-4.648,0.487-6.968c0.003-2.177,0.187-4.261,0.536-6.256
		c-0.099,0.36-0.21,0.713-0.299,1.079C78.684,102.635,78.997,106.7,78.939,110.756z"/>
	<path fill="#7C8993" d="M372.217,123.449c0.002,6.884,0.736,7.326,6.824,4.336c0.441-0.218,0.854-0.498,1.291-0.728
		c1.588-0.833,1.703-1.779,0.334-2.982c-0.988-0.869-1.76-2.036-2.844-2.735c-1.684-1.087-2.576-4.328-4.871-3.199
		C371.18,119.014,372.571,121.798,372.217,123.449z"/>
	<path fill="#798590" d="M348.633,94.463c-2.717-0.16-3.586,4.808-4.125,8.316c4.156,0,8.086,0,13.1,0
		C354.665,98.863,352.043,94.664,348.633,94.463z"/>
	<path fill="#7A8792" d="M372.118,89.923c0.133,1.838,0.078,5.153,0.418,5.194c4.047,0.486,5.057-3.824,7.881-5.487
		c1.094-0.644,2.352-1.727,0.289-2.899c-2.293-1.305-4.881-3.092-7.285-2.431C370.952,84.979,372.797,88.042,372.118,89.923z"/>
	<path fill="#77848F" d="M364.12,97.056c0-3.861,0.15-6.28-0.057-8.668c-0.125-1.441,1.143-3.986-1.162-4.114
		c-2.756-0.154-5.461,1.188-7.6,3.144c-0.209,0.19,0.076,1.313,0.449,1.684C358.145,91.476,360.627,93.761,364.12,97.056z"/>
	<path fill="#77848F" d="M380.387,102.249c0.619,1.422,2.365,0.49,3.594,0.695c0.641,0.106,1.313,0.019,1.971,0.019
		c0-0.012,0-0.022,0-0.034c1.48,0,2.961-0.005,4.441,0.002c1.242,0.005,1.908-0.592,1.566-1.816
		c-0.709-2.534-1.238-5.646-3.504-6.822c-1.842-0.958-2.934,2.074-4.484,3.165c-0.533,0.376-1.063,0.815-1.447,1.334
		C381.702,99.899,379.643,100.537,380.387,102.249z"/>
	<path fill="#798590" d="M386.657,110.844c-2.217,0.03-4.521-0.544-7.768,0.941c2.396,2.149,4.588,3.802,6.391,5.806
		c2.441,2.714,3.721,2.098,5.148-0.946C392.975,111.216,392.807,110.759,386.657,110.844z"/>
	<path fill="#78858F" d="M363.463,118.203c-0.955-0.477-1.523,0.329-2.074,0.862c-2.215,2.151-4.385,4.35-6.895,6.853
		c3.002,1.859,5.826,3.314,9.619,3.407c0-3.05,0.027-5.991-0.02-8.932C364.081,119.636,364.403,118.672,363.463,118.203z"/>
	<path fill="#76838E" d="M351.989,116.717c1.914-1.267,3.615-2.859,5.406-4.313c-0.299-0.524-0.598-1.048-0.896-1.571
		c-3.271,0-6.543-0.017-9.814,0.013c-0.775,0.007-1.914-0.108-1.852,1.04c0.15,2.727,1.117,5.48,3.1,7.106
		C349.795,120.521,350.667,117.593,351.989,116.717z"/>
	<path fill="#7D8993" d="M368.198,110.057c2.172,0.077,3.486-1.087,3.67-3.129c0.195-2.192-1.395-3.126-3.48-3.659
		c-1.756,0.33-3.334,1.086-3.408,3.315C364.907,108.714,365.971,109.978,368.198,110.057z"/>
	<path fill="#7F8B95" d="M128.443,121.853c-1.067-1.04-2.107-2.107-3.172-3.15c-1.564-1.532-2.608-1.336-2.833,0.958
		c-0.112,1.148-0.02,2.316-0.02,3.476c-0.038,6.696,0.147,6.938,4.289,5.634C132.604,126.914,132.807,126.1,128.443,121.853z"/>
	<path fill="#7E8A94" d="M122.401,95.405c0.398,0.235,0.797,0.472,1.195,0.707c2.407-2.202,4.841-4.376,7.208-6.62
		c0.832-0.789,1.813-1.723,0.113-2.711c-2.306-1.342-4.952-3.122-7.335-2.471c-2.377,0.649-0.919,3.748-1.141,5.754
		C122.247,91.824,122.401,93.624,122.401,95.405z"/>
	<path fill="#78848F" d="M107.828,102.198c-3.606-2.974-5.495-7.647-9.404-7.675c-2.375-0.018-3.054,4.607-3.808,8.265
		C98.956,102.854,102.965,103.504,107.828,102.198z"/>
	<path fill="#77848F" d="M135.008,96.412c-0.723,0.887-1.716,1.558-2.408,2.462c-0.83,1.085-2.938,1.69-2.138,3.418
		c0.627,1.351,2.37,0.476,3.604,0.652c0.645,0.093,1.313,0.017,1.97,0.017c6.772,0.002,7.068-0.432,4.808-5.636
		C139.259,93.677,137.514,93.336,135.008,96.412z"/>
	<path fill="#798690" d="M108.605,91.796c1.499,1.415,2.69,3.307,5.658,4.124c0-3.148-0.163-5.792,0.04-8.407
		c0.275-3.551-1.132-3.747-4.051-2.714C104.166,86.953,103.953,87.404,108.605,91.796z"/>
	<path fill="#798691" d="M140.261,110.861c-3.312,0.317-8.143-1.701-9.488,1.067c-1.001,2.059,4.004,4.449,6.075,6.934
		c0.686,0.822,1.573,1.181,2.4-0.021c1.322-1.92,2.218-4.017,2.736-6.033C142.205,111.207,141.353,110.757,140.261,110.861z"/>
	<path fill="#77848F" d="M102.664,110.837c-2.554,0.249-6.477-1.271-7.359,0.725c-1.197,2.709,1.084,5.821,3.475,8.295
		c2.65-2.771,6.04-4.797,8.803-9.041C105.266,110.815,103.953,110.711,102.664,110.837z"/>
	<path fill="#77848F" d="M114.209,123.976c0.217-1.938,0.049-3.918,0.049-5.879c-0.377-0.219-0.754-0.438-1.131-0.655
		c-2.434,2.354-4.875,4.7-7.296,7.067c-0.679,0.663-0.886,1.483,0.017,2.057c2.233,1.42,4.736,3.2,7.262,2.564
		C115.401,128.553,114.009,125.765,114.209,123.976z"/>
	<path fill="#7C8893" d="M118.59,103.283c-1.906,0.237-3.434,1.079-3.525,3.283c-0.091,2.168,1.106,3.41,3.282,3.456
		c2.059,0.043,3.591-0.872,3.686-3.091C122.126,104.742,120.595,103.783,118.59,103.283z"/>
</g>
</svg>
