<?xml version="1.0" encoding="utf-8"?>
<!-- Generator: Adobe Illustrator 16.0.2, SVG Export Plug-In . SVG Version: 6.00 Build 0)  -->
<!DOCTYPE svg PUBLIC "-//W3C//DTD SVG 1.1//EN" "http://www.w3.org/Graphics/SVG/1.1/DTD/svg11.dtd">
<svg version="1.1" id="Layer_1" xmlns="http://www.w3.org/2000/svg" xmlns:xlink="http://www.w3.org/1999/xlink" x="0px" y="0px"
	 width="355.417px" height="125.492px" viewBox="0 0 355.417 125.492" enable-background="new 0 0 355.417 125.492"
	 xml:space="preserve">
<g>
	<path fill="#75828D" d="M355.244,79.461c-1.234-5.172-1.146-10.391-1.506-15.594c-0.1-1.416-0.514-2.392-1.557-3.316
		c-5.543-4.92-12.057-8.184-18.898-10.732c-8.752-3.26-17.867-5.295-27.012-7.131c-11.439-2.297-22.791-5.262-34.617-4.768
		c-0.932,0.039-1.773-0.22-2.607-0.656c-15.659-8.215-31.528-15.959-48.165-22.053c-7.756-2.84-15.269-6.345-23.186-8.751
		c-16.337-4.966-33.094-6.77-50.471-6.413c-8.92-0.183-18.19,0.188-27.433,0.692c-14.084,0.769-28.166,1.65-42.19,3.37
		C64.506,5.716,51.441,7.518,38.397,9.491c-2.688,0.406-3.073,0.954-1.807,3.311c0.869,1.618,0.208,2.227-0.917,3.068
		c-5.23,3.906-10.47,7.803-15.613,11.82c-3.581,2.799-7.363,5.407-10.161,9.077c-1.951,2.562-2.056,5.409-0.276,8.022
		c0.646,0.948,0.823,1.851,0.801,2.961c-0.15,7.479-1.263,14.629-6.549,20.455c-0.051,0.055-0.086,0.125-0.136,0.183
		c-1.377,1.58-1.72,3.412-1.668,5.481c0.042,1.695,0.675,3.6-0.514,5.085c-1.399,1.749-1.635,3.658-1.539,5.763
		c0.089,1.971,0.031,3.949,0.017,5.925c-0.021,2.966,1.865,5.226,2.872,7.811c0.19,0.487,0.7,0.505,1.157,0.578
		c7.408,1.196,14.816,2.394,22.222,3.606c1.208,0.197,1.794-0.087,1.827-1.486c0.064-2.651,0.304-5.3,0.504-7.947
		C29.366,83.314,34.086,75.676,42.05,70c6.083-4.336,13.079-5.374,20.358-5.202c12.088,0.285,23.904,9.014,27.821,20.482
		c2.034,5.957,1.962,12.096,1.753,18.243c-0.057,1.669,0.147,2.358,2.1,2.383c12.301,0.157,24.6,0.5,36.9,0.722
		c20.959,0.378,41.92,0.705,62.879,1.066c18.758,0.324,37.515,0.646,56.271,1.031c1.7,0.035,2.404-0.305,2.41-2.186
		c0.011-3.944,0.229-7.892,0.471-11.831c0.695-11.284,5.19-20.544,14.936-26.694c7.104-4.482,15.012-4.807,23.096-3.664
		c12.854,1.815,23.303,12.354,24.768,25.277c0.547,4.82,0.713,9.688,0.949,14.537c0.086,1.721,0.635,2.414,2.473,2.211
		c2.787-0.308,5.604-0.362,8.406-0.537c5.529-0.343,11.059-0.72,16.59-1.027c1.643-0.092,2.604-0.896,3.699-2.13
		c3.889-4.38,4.768-9.874,6.123-15.212C354.722,84.831,355.849,81.999,355.244,79.461z M73.787,30.854
		c-0.482,0.656-1.104,0.678-1.811,0.66c-7.979-0.193-15.029-2.553-20.599-8.889c11.486-4.887,23.407-7.546,35.966-10.168
		C82.584,18.91,78.177,24.875,73.787,30.854z M140.089,35.813c-8.624-0.588-17.258-1.027-25.888-1.535
		c-7.72-0.454-15.438-0.938-23.16-1.354c-1.142-0.061-1.298-0.57-1.377-1.557c-0.305-3.801,0.285-7.353,2.302-10.667
		c1.733-2.848,3.327-5.782,4.919-8.711c0.488-0.897,1.115-1.282,2.123-1.424c13.896-1.947,27.817-3.485,41.885-3.382
		c2.07,0.016,2.623,0.545,2.654,2.633c0.113,7.431,0.475,14.857,0.741,22.286C144.422,36.227,144.431,36.109,140.089,35.813z
		 M229.742,41.76c-0.119,1.16-1.345,0.43-2.079,0.381c-9.531-0.631-19.062-1.269-28.589-1.945
		c-12.249-0.87-24.495-1.794-36.746-2.64c-1.116-0.077-1.613-0.445-1.78-1.531c-1.38-8.98-2.778-17.959-4.2-26.934
		c-0.261-1.646,0.908-1.286,1.704-1.229c5.517,0.393,11.04,0.686,16.528,1.441c18.664,2.573,35.703,9.738,52.224,18.381
		c0.06,0.031,0.09,0.118,0.271,0.37c-2.853,0.971-3.758,2.22-3.813,5.175c-0.018,0.91-0.019,1.821-0.041,2.731
		c-0.096,3.925,0.742,4.847,4.636,5.216C228.538,41.241,229.838,40.833,229.742,41.76z"/>
	<path fill="#76838D" d="M285.003,66.141c-16.27,0.002-29.121,12.928-29.079,29.251c0.042,16.331,12.92,29.219,29.167,29.188
		c16.223-0.03,29.023-13.009,28.969-29.37C314.003,79.04,301.111,66.141,285.003,66.141z M284.984,116.326
		c-11.535-0.013-20.723-9.266-20.756-20.905c-0.033-11.607,9.17-20.976,20.656-21.023c11.506-0.05,20.861,9.268,20.883,20.797
		C305.791,106.959,296.566,116.338,284.984,116.326z"/>
	<path fill="#76838D" d="M61.623,67.09c-16.195-0.58-30.336,11.748-30.61,29.066c-0.255,16.075,13.021,29.32,29.156,29.335
		c16.214,0.013,29.076-12.974,29.127-29.282C89.346,80.297,76.433,67.622,61.623,67.09z M60.166,117.237
		c-11.518,0-20.691-9.27-20.716-20.928c-0.023-11.62,9.174-20.97,20.658-21.002c11.47-0.031,20.871,9.326,20.917,20.819
		C81.072,107.784,71.73,117.239,60.166,117.237z"/>
	<path fill="#78848F" d="M269,92.584c2.109-0.059,4.221-0.014,6.332-0.019c0.518-0.001,1.133,0.112,1.359-0.522
		c0.178-0.5-0.262-0.816-0.568-1.143c-1.799-1.923-3.6-3.846-5.598-5.98c-1.463,1.971-2.16,4.017-2.781,6.121
		C267.355,92.35,267.808,92.618,269,92.584z"/>
	<path fill="#77848F" d="M293.898,92.453c2.766,0.205,5.563,0.001,8.348-0.034c0.1-2.765-1.287-4.99-2.445-7.083
		c-2.09,1.924-4.049,3.687-5.953,5.507C293.339,91.327,292.576,92.355,293.898,92.453z"/>
	<path fill="#77848F" d="M280.449,86.733c0.311,0.317,0.629,0.712,1.154,0.455c0.51-0.25,0.414-0.754,0.418-1.194
		c0.01-1.209,0.002-2.418,0.002-3.628c0-1.058-0.08-2.123,0.02-3.172c0.143-1.493-0.486-1.573-1.703-1.227
		c-1.617,0.46-3.109,1.139-4.52,2.03c-0.742,0.468-1.139,0.892-0.287,1.714C277.218,83.337,278.81,85.059,280.449,86.733z"/>
	<path fill="#77838E" d="M298.339,98.094c-0.15,0-0.303,0-0.453,0.001c-1.135,0.001-2.27-0.005-3.404,0.003
		c-0.447,0.004-0.951-0.061-1.186,0.448c-0.24,0.521,0.16,0.841,0.463,1.165c1.244,1.322,2.48,2.65,3.746,3.952
		c2.205,2.271,2.213,2.263,3.496-0.587c0.063-0.137,0.119-0.277,0.18-0.416C303.136,98.094,303.136,98.094,298.339,98.094z"/>
	<path fill="#77838E" d="M288.466,87.234c0.617,0.203,0.926-0.374,1.281-0.734c1.428-1.448,2.775-2.984,4.283-4.343
		c1.225-1.102,1.098-1.766-0.354-2.369c-0.414-0.172-0.793-0.43-1.199-0.627c-4.479-2.199-4.498-2.188-4.498,2.641
		c0,0.227,0,0.453,0,0.678c0,1.131-0.012,2.262,0.006,3.391C287.996,86.372,287.806,87.018,288.466,87.234z"/>
	<path fill="#76838E" d="M276.542,98.686c-0.645-1.447-2.873-0.247-4.135-0.591c-5.6,0-5.6,0-3.553,4.705
		c1.377,3.165,1.4,3.171,3.729,0.764c0.473-0.489,1.018-0.931,1.398-1.485C274.82,100.858,277.082,99.9,276.542,98.686z"/>
	<path fill="#77838E" d="M291.99,106.522c-1.199-0.984-2.254-3.362-3.41-2.861c-1.488,0.644-0.252,2.991-0.6,4.289
		c0,0.573,0,0.875,0,1.178c0,4.342,0.211,4.47,4.236,2.575c3.309-1.558,3.309-1.558,0.73-4.215
		C292.63,107.163,292.339,106.807,291.99,106.522z"/>
	<path fill="#77848F" d="M281.587,103.577c-0.988-0.424-1.35,0.719-1.916,1.234c-0.947,0.863-1.797,1.833-2.695,2.75
		c-2.512,2.565-2.514,2.564,0.676,4.086c4.133,1.975,4.373,1.832,4.373-2.611c0-0.302,0-0.604,0-0.906
		c0-0.831,0.051-1.666-0.016-2.49C281.951,104.929,282.433,103.938,281.587,103.577z"/>
	<path fill="#77838E" d="M285.115,92.586c-1.754,0.082-2.67,0.992-2.691,2.723c-0.021,1.711,0.811,2.779,2.574,2.795
		c1.643,0.014,2.5-0.979,2.564-2.577C287.63,93.848,286.859,92.788,285.115,92.586z"/>
	<path fill="#77848F" d="M51.836,99.581c-0.23-0.674-0.861-0.502-1.36-0.506c-2.125-0.019-4.251,0.023-6.374-0.021
		c-1.125-0.022-1.542,0.362-1.194,1.487c0.647,2.1,1.296,4.195,2.829,6.181c1.935-2.042,3.708-3.91,5.477-5.782
		C51.574,100.558,52.046,100.191,51.836,99.581z"/>
	<path fill="#77848F" d="M73.141,99.075c-1.21,0-2.424-0.058-3.629,0.017c-1.176,0.073-1.537,0.647-0.648,1.586
		c1.611,1.702,3.279,3.352,4.887,5.058c0.704,0.747,1.238,0.743,1.717-0.181c0.244-0.469,0.487-0.938,0.707-1.418
		C78.492,99.066,78.491,99.065,73.141,99.075z"/>
	<path fill="#76838E" d="M73.684,86.959c-1.547,1.666-3.166,3.265-4.75,4.896c-0.313,0.323-0.702,0.653-0.518,1.167
		c0.189,0.527,0.692,0.512,1.149,0.512c2.644,0.004,5.286,0.002,8.005,0.002c-0.162-2.419-1.082-4.396-2.052-6.361
		C74.996,86.115,74.468,86.116,73.684,86.959z"/>
	<path fill="#78848F" d="M57.251,109.391c0.013-0.073,0.001-0.151,0-0.227c-0.001-1.136,0.011-2.271-0.007-3.406
		c-0.007-0.434,0.111-0.949-0.392-1.207c-0.622-0.319-0.989,0.161-1.35,0.528c-1.593,1.618-3.175,3.247-4.749,4.885
		c-0.341,0.354-0.962,0.769-0.238,1.263c1.893,1.292,4.074,2.722,6.191,2.426C57.967,113.476,56.993,110.875,57.251,109.391z"/>
	<path fill="#76838E" d="M64.742,104.911c-0.301-0.313-0.611-0.74-1.14-0.459c-0.497,0.266-0.37,0.777-0.376,1.213
		c-0.015,1.133-0.005,2.266-0.005,3.398s0.043,2.268-0.011,3.398c-0.056,1.147,0.156,1.665,1.509,1.242
		c1.599-0.499,3.105-1.143,4.536-1.994c0.756-0.449,1.167-0.903,0.346-1.729C67.951,108.321,66.366,106.596,64.742,104.911z"/>
	<path fill="#77848F" d="M56.741,79.122c-1.563-0.834-3.37,0.675-4.982,1.447c-0.271,0.129-0.507,0.324-0.77,0.471
		c-0.841,0.473-1.003,0.939-0.209,1.693c1.583,1.503,3.081,3.096,4.623,4.643c0.362,0.363,0.704,0.889,1.318,0.67
		c0.778-0.276,0.495-1.004,0.519-1.561c0.041-0.977,0.012-1.957,0.012-3.176C56.968,82.034,58.063,79.827,56.741,79.122z"/>
	<path fill="#76838E" d="M46.251,93.538c0.38,0,0.76,0,1.14,0c1.063-0.002,2.127,0.017,3.189-0.01
		c0.425-0.012,0.95,0.156,1.21-0.367c0.302-0.607-0.12-1-0.487-1.381c-1.003-1.039-2.023-2.06-3.021-3.102
		c-2.964-3.094-2.961-3.097-4.559,0.925C42.16,93.538,42.16,93.538,46.251,93.538z"/>
	<path fill="#77838E" d="M63.797,88.041c1.008,0.396,1.838-1.304,2.647-2.146c1.28-1.335,3.957-2.854,3.479-4.02
		c-0.765-1.862-3.511-2.302-5.615-2.931c-0.281-0.083-0.59-0.07-1.088-0.123c0,1.955-0.093,3.844,0.033,5.718
		C63.336,85.752,62.497,87.532,63.797,88.041z"/>
	<path fill="#77848F" d="M60.133,93.531c-1.83-0.017-2.583,1.223-2.565,2.786c0.018,1.576,0.836,2.723,2.917,2.715
		c1.427-0.17,2.337-1.1,2.302-2.802C62.752,94.543,61.87,93.545,60.133,93.531z"/>
</g>
</svg>
