<?xml version="1.0" encoding="utf-8"?>
<!-- Generator: Adobe Illustrator 16.0.2, SVG Export Plug-In . SVG Version: 6.00 Build 0)  -->
<!DOCTYPE svg PUBLIC "-//W3C//DTD SVG 1.1//EN" "http://www.w3.org/Graphics/SVG/1.1/DTD/svg11.dtd">
<svg version="1.1" id="Layer_1" xmlns="http://www.w3.org/2000/svg" xmlns:xlink="http://www.w3.org/1999/xlink" x="0px" y="0px"
	 width="349.813px" height="223.84px" viewBox="0 0 349.813 223.84" enable-background="new 0 0 349.813 223.84"
	 xml:space="preserve">
<g>
	<path fill="#75828D" d="M342.78,132.463c-9.094-18.005-23.804-29.081-43.688-33.195c-12.924-2.674-25.349-1.015-37.405,3.961
		c-1.759,0.726-2.414,0.552-3.216-1.099c-3.782-7.78-7.381-15.641-10.673-23.639c-0.38-0.922-1.12-1.807-0.851-3.065
		c0.332,0.045,0.615,0.078,0.898,0.122c7.967,1.245,15.926,2.182,23.983,0.634c8.723-1.677,13.845-6.679,14.839-15.438
		c0.625-5.499,0.639-11.107-0.023-16.606c-1.002-8.334-5.602-13.178-13.832-15.136c-6.06-1.441-12.186-1.286-18.318-0.465
		c-7.216,0.969-14.095,2.912-20.218,7.056c-0.774-1.071-0.907-2.221-1.148-3.312c-2.351-10.632-5.598-20.931-10.954-30.49
		c-0.732-1.306-1.482-1.767-2.98-1.785c-6.047-0.076-11.96,0.741-17.75,2.401c-8.644,2.478-16.547,6.349-23.176,12.576
		c-0.898,0.845-1.096,1.353-0.091,2.304c2.646,2.507,5.214,5.1,7.73,7.738c0.844,0.885,1.417,0.816,2.233,0.05
		c5.466-5.135,12.059-8.094,19.289-9.653c6.604-1.424,4.687-2.129,7.516,3.904c2.118,4.52,2.275,8.896-0.146,13.287
		c-2.867,5.202-6.44,9.415-13.098,9.393c-5.55-0.019-11.072,0.455-16.545,1.362c-17.316,2.872-30.413,11.212-36.869,28.307
		c-1.993,5.278-2.177,5.279-7.811,5.025c-8.818-0.396-17.523-1.64-25.959-4.289c-4.977-1.563-9.565-3.694-12.094-8.867
		c-4.516-9.235-12.713-13.024-22.374-13.707c-13.632-0.962-27.306-1.439-40.923,0.382c-10.056,1.346-19.566,4.247-27.777,10.5
		c-5.576,4.246-9.973,9.285-11.256,16.514c-0.242,1.366-0.041,2.209,0.863,3.209c6.258,6.928,14.436,9.715,23.356,10.226
		c7.95,0.454,15.945,0.106,23.921,0.126c6.217,0.015,12.229,1.198,17.991,3.477c2.831,1.12,5.688,2.304,8.192,4.625
		c-43.59-6.548-72.602,26.48-74.104,57.915c-1.817,38.04,27.229,67.475,63.849,67.026c36.304-0.445,65.556-32.275,61.487-69.436
		c0.91,0.691,1.51,1.123,2.085,1.587c8.572,6.926,17.313,13.627,26.887,19.13c5.259,3.022,10.582,6.023,16.827,6.56
		c5.261,0.452,10.441-0.36,15.609-1.149c7.031-1.074,13.809-2.988,19.846-6.889c5.907-3.814,8.479-9.104,7.464-16.295
		c-1.444-10.225-0.997-20.433,1.46-30.508c3.166-12.985,10.006-23.666,20.223-32.225c2.458-2.06,2.423-2.028,3.758,0.8
		c2.3,4.87,4.594,9.744,7.035,14.543c0.695,1.366,0.521,2.099-0.646,2.992c-3.641,2.79-6.756,6.146-9.446,9.821
		c-13.019,17.784-16.289,37.322-9.455,58.229c9.421,28.815,37.815,45.958,66.879,42.359c12.855-1.592,24.281-6.434,34.004-15.026
		C350.136,188.922,356.078,158.796,342.78,132.463z M63.14,156.021c0.119,1.66,0.026,3.336,0.026,5.006
		c0,1.518,0.104,3.044-0.028,4.55c-0.15,1.735,0.348,2.38,2.227,2.33c5.08-0.136,10.166-0.052,15.251-0.044
		c2.462,0.004,2.508,0.097,1.381,2.378c-3.838,7.766-12.314,12.524-20.719,11.632c-9.204-0.979-16.392-7.314-18.504-16.314
		c-2.383-10.146,3.465-20.882,13.231-24.292c10.214-3.567,21.289,0.824,25.861,10.255c1.193,2.463,1.193,2.471-1.432,2.474
		c-5.084,0.006-10.168,0.059-15.251-0.031C63.589,153.935,63.024,154.429,63.14,156.021z M66.136,126.238
		c-18.583-1.847-35.009,11.636-37.592,30.116c-0.208,1.488-0.027,3.031-0.027,4.549c-0.094,17.236,11.845,31.519,28.689,34.512
		c17.551,3.118,35.088-7.942,39.562-25.105c0.588-2.258,1.723-2.541,3.675-2.485c4.099,0.117,4.278,0.085,3.176,3.955
		c-4.049,14.215-13.105,23.833-27.023,28.805c-21.764,7.772-46.118-4.548-53.281-26.772c-7.196-22.324,5.15-44.94,25.791-52.379
		c22.474-8.1,47.049,4.444,54.061,27.023c0.404,1.3,0.641,2.65,1.019,3.96c0.361,1.254-0.136,1.549-1.336,1.606
		c-5.013,0.241-4.889,0.23-6.702-4.487C90.849,135.753,80.978,127.713,66.136,126.238z M243.103,59.957
		c-2.212-0.615-3.081-1.699-3.531-3.727c-0.555-2.503-1.334-4.955-2.017-7.43c1.232,0.813,1.964,0.592,3.013-0.359
		c2.744-2.491,6.137-3.847,9.678-4.786c6.212-1.648,12.505-2.254,18.887-1.186c2.856,0.479,3.593,1.31,3.639,4.249
		c0.061,3.941,0.061,7.886-0.011,11.826c-0.049,2.66-0.823,3.612-3.409,3.95C260.415,63.664,251.728,62.357,243.103,59.957z
		 M268.708,150.443c0.814-1.553,1.315-1.313,2.225-0.009c4.858,6.973,9.994,13.734,15.776,19.981
		c2.048,2.213,2.067,2.213,4.324,0.151c2.072-1.893,4.03-3.926,6.214-5.678c1.644-1.317,1.407-2.258,0.129-3.635
		c-5.428-5.844-10.232-12.19-14.887-18.658c-1.088-1.513-1.031-1.938,0.969-2.28c10.799-1.847,21.418,5.176,23.84,15.925
		c3.087,13.697-7.56,26.344-21.598,25.659c-11.1-0.541-19.764-9.861-19.775-21.263C265.926,156.987,267.026,153.646,268.708,150.443
		z M328.682,164.354c-1.456,16.975-12.456,30.928-28.339,36.193c-15.82,5.245-30.15,2.043-42.206-9.185
		c-16.461-15.33-17.76-40.919-2.999-57.742c0.893-1.019,1.631-2.197,2.807-2.936c0.09,0.057,0.178,0.082,0.215,0.14
		c1.09,1.728,2.696,3.341,3.12,5.221c0.475,2.101-1.939,3.296-3.073,4.864c-11.25,15.559-6.935,38.376,9.385,49.164
		c22.252,14.709,51.831,0.32,54.046-26.345c1.649-19.85-13.565-36.268-31.699-37.542c-5.169-0.363-10.14,0.173-14.971,1.952
		c-1.218,0.449-1.81,0.271-2.529-0.871c-2.938-4.663-2.989-4.631,2.257-6.432c15.602-5.356,34.642,0.667,45.067,14.164
		C326.464,143.677,329.609,153.543,328.682,164.354z"/>
</g>
</svg>
