<?xml version="1.0" encoding="utf-8"?>
<!-- Generator: Adobe Illustrator 16.0.2, SVG Export Plug-In . SVG Version: 6.00 Build 0)  -->
<!DOCTYPE svg PUBLIC "-//W3C//DTD SVG 1.1//EN" "http://www.w3.org/Graphics/SVG/1.1/DTD/svg11.dtd">
<svg version="1.1" id="Layer_1" xmlns="http://www.w3.org/2000/svg" xmlns:xlink="http://www.w3.org/1999/xlink" x="0px" y="0px"
	 width="377.246px" height="144.68px" viewBox="0 0 377.246 144.68" enable-background="new 0 0 377.246 144.68"
	 xml:space="preserve">
<g>
	<path fill="#76828D" d="M374.801,105.821c1.945-8.109,2.833-16.416,2.286-24.777c-1.034-15.803-11.097-28.272-24.969-30.29
		c-18.092-2.632-36.232-4.966-54.395-7.067c-10.643-1.232-20.868-2.643-29.957-9.399c-12.282-9.131-25.204-17.406-38.702-24.705
		c-3.305-1.787-7.167-2.736-9.046-6.581c-0.446-0.915-2.363-2.2-2.723-1.016c-1.363,4.492-4.283,2.136-6.653,1.887
		c-5.949-0.625-11.866-1.716-17.827-2.046c-44.44-2.465-88.888-2.413-133.331,0.029C49.343,2.413,39.286,3.686,29.317,5.612
		c-1.613,0.312-4.472,0.362-3.704,2.67c0.873,2.62-0.794,3.284-1.944,4.463c-9.62,9.848-14.827,21.916-17.598,35.158
		C4.307,56.34,6.212,64.84,6.027,73.313c-0.043,1.991-0.007,3.82-1.37,5.624c-5.679,7.518-5.811,15.92-2.302,24.131
		c1.744,4.08,2.274,9.329,7.814,11.236c10.192,3.508,20.791,4.292,31.362,5.397c2.351,0.245,2.923-0.811,2.376-2.956
		c-1.171-4.598-1.133-9.278-0.212-13.873c4.116-20.537,23.174-33.425,43.401-29.468c21.149,4.138,34.101,22.934,29.779,43.905
		c-0.891,4.322,0.347,4.593,3.901,4.577c24.661-0.108,49.321-0.057,73.982-0.057c0,0.063,0,0.127,0,0.19
		c24.661,0,49.322-0.06,73.982,0.063c3.797,0.019,5.446-0.732,3.605-4.701c-0.409-0.884-0.46-1.936-0.667-2.912
		c-4.946-23.343,17.112-46.412,40.767-43.344c23.237,3.014,38.758,25.343,31.649,47.611c-0.974,3.051,0.113,3.389,2.612,3.313
		c6.295-0.19,11.969-0.951,17.921-4.436C369.894,114.534,373.479,111.324,374.801,105.821z M100.866,15.807
		c-5.46,7.738-11.068,15.372-16.438,23.172c-1.509,2.192-3.18,2.943-5.77,2.903c-8.81-0.139-17.623-0.053-26.435-0.054
		c-8.979,0-17.958-0.074-26.935,0.043c-2.77,0.037-4.082-0.392-2.835-3.531c3.809-9.587,9.416-17.883,17.131-24.764
		c1.344-1.198,2.786-1.614,4.51-1.713c17.746-1.016,35.489-2.095,53.236-3.091c1.914-0.107,4.345-0.819,5.487,1.278
		C104.063,12.335,102.071,14.1,100.866,15.807z M161.618,42.854c-6.814-0.073-13.631-0.026-20.446-0.026
		c-6.482,0.001-12.967,0.073-19.448-0.017c-8.667-0.121-11.962-4.962-8.872-13.011c1.426-3.715,3.274-7.277,4.537-11.042
		c2.275-6.779,7.316-8.741,13.848-8.943c10.318-0.32,20.598,0.245,30.889,0.747c2.257,0.11,3.221,0.793,3.189,3.211
		c-0.109,8.643-0.13,17.289,0.015,25.931C165.378,42.615,163.892,42.878,161.618,42.854z M238.275,41.083
		c1.34,3.557-0.295,3.693-3.093,3.653c-8.311-0.12-16.625-0.043-24.938-0.043c-8.313,0-16.628-0.102-24.938,0.053
		c-3.018,0.057-4.495-0.494-4.38-4.021c0.271-8.305,0.207-16.624,0.126-24.936c-0.044-4.406,1.834-5.824,6.286-6.226
		c19.37-1.746,35.136,6.455,50.141,17.184c1.472,1.052,1.96,1.933,1.076,3.667C236.791,33.879,236.962,37.6,238.275,41.083z"/>
	<path fill="#76838E" d="M80.208,144.679c19.521,0.146,35.761-15.573,35.897-34.743c0.133-18.888-15.354-34.816-33.511-35.461
		c-23.652-0.84-38.146,18.542-37.565,34.375C44.827,128.653,60.418,144.532,80.208,144.679z M79.566,84.572
		c14.894-0.034,26.297,10.691,26.412,24.843c0.111,13.601-11.714,25.221-25.71,25.264c-13.837,0.043-25.109-11.194-25.128-25.048
		C55.122,95.759,65.997,84.603,79.566,84.572z"/>
	<path fill="#76838E" d="M344.072,108.16c0.229-19.354-16.196-35.537-35.749-35.452c-19.712,0.086-35.293,15.592-35.304,35.133
		c-0.01,19.065,15.246,34.583,33.702,35.061C328.475,143.463,343.853,126.812,344.072,108.16z M283.14,107.293
		c0.202-13.603,11.84-24.732,25.701-24.581c13.737,0.151,25.278,11.747,25.131,25.251c-0.151,13.873-11.522,25.047-25.288,24.85
		C293.8,132.6,282.925,121.736,283.14,107.293z"/>
	<path fill="#828E98" d="M97.139,112.992c-2.081,0.017-4.276-0.582-7.89,1.639c2.268,1.683,4.269,2.706,5.638,4.28
		c2.636,3.03,4.147,2.967,5.627-0.955C102.237,113.382,102.132,112.952,97.139,112.992z"/>
	<path fill="#7E8A94" d="M75.876,99.361c2.193-1.326,0.57-3.55,1.276-5.438c-1.128-1.509,1.656-5.113-2.411-4.966
		c-2.273,0.082-4.784,1.064-6.104,3.381C68.323,92.888,75.35,99.679,75.876,99.361z"/>
	<path fill="#818C97" d="M75.461,119.977c-0.822-0.238-7.215,6.297-6.854,6.844c1.602,2.425,4.419,3.294,6.859,3.231
		c3.19-0.082,0.617-3.195,1.786-4.665C76.132,123.654,78.692,120.91,75.461,119.977z"/>
	<path fill="#7F8B95" d="M70.557,113.052c-4.155,0.295-8.349-1.666-10.816,1.021c-1.431,1.559,1.005,5.139,3.079,7.724
		C65.262,119.046,68.368,117.133,70.557,113.052z"/>
	<path fill="#7B8792" d="M84.213,93.806c-0.214,1.767-0.049,3.579-0.049,6.165c3.594-1.928,5.238-4.515,7.445-6.465
		c0.85-0.75,1.324-1.646,0.077-2.366c-2.007-1.159-4.232-2.772-6.441-2.154C83.074,89.593,84.414,92.139,84.213,93.806z"/>
	<path fill="#7A8691" d="M63.807,105.887c1.937-0.232,3.925-0.039,6.451-0.039c-1.051-3.168-3.294-4.229-4.686-5.996
		c-2.478-3.146-3.723-1.757-5.047,1.102C58.814,104.648,59.258,106.433,63.807,105.887z"/>
	<path fill="#788590" d="M90.316,124.26c-1.8-1.39-2.978-3.533-6.144-4.827c0,2.604-0.008,4.544,0.002,6.483
		c0.026,5.105,0.6,5.423,5.214,3.194C91.984,127.857,93.276,126.544,90.316,124.26z"/>
	<path fill="#78848F" d="M90.975,105.824c2.914,0,5.827,0.01,8.741-0.006c0.833-0.004,1.848-0.065,1.736-1.192
		c-0.233-2.354-1.153-4.5-2.679-6.308c-0.742-0.879-1.474-0.154-2.095,0.386c-2.189,1.906-4.372,3.82-6.557,5.73
		C90.406,104.898,90.69,105.361,90.975,105.824z"/>
	<path fill="#7B8892" d="M80.701,112.668c1.68-0.436,2.817-1.435,2.707-3.399c-0.097-1.723-0.968-2.747-2.824-2.647
		c-1.866,0.101-3.287,0.937-3.239,2.919C77.389,111.415,78.734,112.38,80.701,112.668z"/>
	<path fill="#828E98" d="M327.887,104.345c1.101-0.002,1.854-0.574,1.587-1.9c-0.464-2.297-1.032-4.934-2.952-6.045
		c-1.895-1.098-2.845,1.614-4.078,2.725c-1.41,1.269-3.185,2.348-3.847,4.724C321.703,104.878,324.825,104.351,327.887,104.345z"/>
	<path fill="#7F8B96" d="M303.824,97.455c2.333-1.017,0.557-3.208,1.338-4.87c-1.114-1.688,1.541-5.095-1.905-5.446
		c-2.382-0.244-5.14,1.022-6.625,3.427C296.165,91.321,302.938,97.841,303.824,97.455z"/>
	<path fill="#7E8A95" d="M304.975,121.431c0.061-0.321,0.039-0.669-0.004-0.996c-0.103-0.78,0.29-1.773-0.64-2.238
		c-0.972-0.485-1.467,0.453-2.06,0.948c-2.163,1.807-4.301,3.645-6.618,5.615c2.94,2.588,5.732,4.576,8.235,3.509
		C306.378,127.208,304.535,123.772,304.975,121.431z"/>
	<path fill="#7F8B96" d="M291.805,104.412c2.059-0.286,4.296,0.704,6.288-0.821c-0.835-2.406-3.111-3.479-4.488-5.293
		c-2.64-3.477-3.861-1.894-5.24,1.137C286.599,103.318,287.366,105.03,291.805,104.412z"/>
	<path fill="#7A8691" d="M298.248,111.541c-2.662,0-4.812,0.196-6.912-0.042c-4.052-0.459-4.416,1.201-3.064,4.472
		c1.366,3.306,2.823,4.904,5.63,1.237C295.174,115.546,297.289,114.577,298.248,111.541z"/>
	<path fill="#798590" d="M319.741,90.324c-0.042-2.116-4.317-2.814-7.311-3.234c-0.243,3.601-0.764,7.064,0.47,10.948
		C315.771,95.425,319.808,93.632,319.741,90.324z"/>
	<path fill="#78858F" d="M325.162,111.581c-2.062,0.026-4.215-0.529-7.519,1.083c2.157,1.791,4.096,3.046,5.573,4.71
		c2.367,2.664,3.717,2.486,5.094-0.867C330.202,111.901,330.112,111.516,325.162,111.581z"/>
	<path fill="#7A8691" d="M316.324,127.858c4.542-1.944,4.771-2.559,1.231-5.856c-1.439-1.342-2.938-2.621-5.392-4.802
		c0,3.365,0.153,5.509-0.035,7.623C311.815,128.353,312.91,129.319,316.324,127.858z"/>
	<path fill="#7A8791" d="M311.396,107.984c0.004-1.979-1.089-3.001-3.271-3.267c-1.445,0.536-2.91,1.372-2.811,3.355
		c0.101,1.982,1.467,2.896,3.379,2.813C310.469,110.81,311.394,109.747,311.396,107.984z"/>
</g>
</svg>
