<?xml version="1.0" encoding="utf-8"?>
<!-- Generator: Adobe Illustrator 16.0.2, SVG Export Plug-In . SVG Version: 6.00 Build 0)  -->
<!DOCTYPE svg PUBLIC "-//W3C//DTD SVG 1.1//EN" "http://www.w3.org/Graphics/SVG/1.1/DTD/svg11.dtd">
<svg version="1.1" id="Layer_1" xmlns="http://www.w3.org/2000/svg" xmlns:xlink="http://www.w3.org/1999/xlink" x="0px" y="0px"
	 width="428.312px" height="145.149px" viewBox="0 0 428.312 145.149" enable-background="new 0 0 428.312 145.149"
	 xml:space="preserve">
<g>
	<path fill="#76828D" d="M421.883,92.028c-2.354-0.609-2.534-1.59-2.504-4.098c0.09-7.199,1.15-14.146-2.648-21.544
		c-3.619-7.049-8.471-10.039-15.17-11.061c-20.881-3.182-41.751-6.528-62.829-8.196c-10.068-0.797-19.949-2.315-28.593-7.942
		c-5.153-3.354-10.215-6.945-14.873-10.946C273.771,9.775,249.667-1.444,220.622,0.15c-9.45,0.519-18.958-0.672-28.362,1.558
		c-5.564,1.319-8.612,4.516-9.862,9.916c-2.078,8.978-2.582,18.117-2.729,27.267c-0.071,4.473-1.673,6.067-6.28,6.035
		c-26.496-0.184-52.994-0.089-79.492-0.09c-5.666-0.001-11.332-0.001-16.998-0.001c-20.832,0-41.663-0.021-62.495,0.04
		C12.626,44.88,9.619,43.917,9.757,47c0.28,6.262-2.681,11.939-2.522,18.206c0.193,7.676,0.681,15.313,1.661,22.902
		c0.371,2.877,0.415,4.345-3.09,4.326c-3.41-0.017-5.183,1.729-5.64,5.528c-0.623,5.17,0.61,9.826,1.971,14.653
		c0.973,3.455,2.558,4.678,6.255,4.628c16.329-0.219,32.666-0.254,48.993,0.007c4.701,0.075,7.773-0.221,6.561-6.119
		c-0.355-1.727,0.225-3.638,0.33-5.466c1.364-23.642,23.421-40.146,46.681-34.924c18.768,4.214,30.503,19.518,30.261,40.295
		c-0.061,5.119,1.32,6.248,6.313,6.234c54.995-0.152,109.989-0.04,164.984,0.001c10.575,0.008,10.575,0.009,10.861-10.524
		c0.483-17.776,13.235-32.786,30.806-36.259c16.716-3.304,34.158,6.068,41.324,22.027c2.963,6.599,3.278,13.501,3.21,20.535
		c-0.016,1.607-0.915,4.065,2.061,4.165c7.496,0.251,15.015,0.465,22.109-2.641c4.532-1.983,5.931-5.998,5.273-10.313
		C427.455,99.652,428.439,93.724,421.883,92.028z M284.604,41.322c0.583,6.978,0.594,6.978-6.69,6.978c-9.646,0-19.292,0-28.938,0
		c-10.811,0-21.624-0.167-32.429,0.089c-3.814,0.091-4.757-1.378-5.022-4.843c-0.751-9.767-1.752-19.518-2.857-29.252
		c-0.388-3.408,0.143-4.973,4.144-5.345c18.537-1.723,36.461-0.053,53.544,7.941c4.739,2.217,8.869,5.228,12.778,8.576
		c3.74,3.204,7.688,6.418,5.449,12.388C284.202,38.866,284.507,40.165,284.604,41.322z"/>
	<path fill="#76838E" d="M102.648,72.083C82.547,72,66.579,87.905,66.452,108.135c-0.125,19.999,15.753,36.896,34.782,37.014
		c20.831,0.13,37.251-15.746,37.342-36.106C138.668,88.574,122.717,72.165,102.648,72.083z M103.058,134.166
		c-14.578-0.027-25.685-11.011-25.716-25.431c-0.031-14.445,11.152-25.702,25.496-25.663c13.902,0.038,24.758,11.025,24.845,25.149
		C127.771,122.641,116.809,134.191,103.058,134.166z"/>
	<path fill="#76838E" d="M361.044,72.085c-20.262,0.046-35.92,16.17-35.818,36.887c0.097,19.83,15.946,36.192,35.043,36.177
		c20.717-0.018,37.156-16.13,37.162-36.424C397.438,88.504,381.087,72.042,361.044,72.085z M361.41,134.17
		c-14.146-0.19-25.627-11.497-25.656-25.269c-0.03-14.39,11.713-26.004,26.116-25.83c13.963,0.168,24.8,11.584,24.661,25.98
		C386.399,122.868,374.913,134.352,361.41,134.17z"/>
	<path fill="#F6F6F8" d="M95.528,87.178c0.009,0.012,0.017,0.023,0.025,0.035c0.006-0.014,0.016-0.023,0.022-0.037
		C95.56,87.178,95.545,87.176,95.528,87.178z"/>
	<path fill="#F6F6F8" d="M95.576,87.176c0.004,0,0.007,0,0.012,0c0.005-0.014,0.011-0.028,0.016-0.042
		c-0.002,0.001-0.004,0.003-0.007,0.004C95.59,87.151,95.583,87.163,95.576,87.176z"/>
	<path fill="#F6F6F8" d="M81.55,101.175L81.55,101.175c-0.01,0.021-0.019,0.043-0.029,0.065c0.012-0.007,0.023-0.014,0.035-0.021
		C81.555,101.205,81.551,101.191,81.55,101.175z"/>
	<path fill="#F6F6F8" d="M83.552,120.182c0.029-0.028,0.046-0.06,0.072-0.089c-0.033,0.001-0.063,0.007-0.096,0.008
		C83.537,120.129,83.543,120.153,83.552,120.182z"/>
	<path fill="#F6F6F8" d="M121.431,120.108c0.022,0.025,0.037,0.053,0.061,0.076c0.008-0.027,0.014-0.049,0.022-0.076
		C121.485,120.11,121.46,120.107,121.431,120.108z"/>
	<path fill="#F6F6F8" d="M83.528,120.101c-0.003-0.009-0.005-0.017-0.008-0.026c-0.01,0.008-0.02,0.014-0.029,0.021
		c0.002,0.002,0.003,0.005,0.005,0.008C83.506,120.102,83.517,120.102,83.528,120.101z"/>
	<path fill="#F6F6F8" d="M121.514,120.108c0.011,0,0.021,0,0.031,0c0.002-0.003,0.004-0.007,0.007-0.01
		c-0.01-0.008-0.02-0.015-0.029-0.021C121.52,120.087,121.518,120.096,121.514,120.108z"/>
	<path fill="#F3F4F6" d="M379.334,121.048c0.041,0.07,0.08,0.141,0.129,0.211c0-0.001,0-0.001,0.001-0.001
		c0.005-0.034,0.014-0.066,0.02-0.101C379.434,121.123,379.386,121.083,379.334,121.048z"/>
	<path fill="#F3F4F6" d="M379.485,121.158c0.013,0.009,0.026,0.019,0.039,0.028c0.002-0.002,0.003-0.005,0.005-0.007
		c-0.009-0.028-0.022-0.054-0.032-0.081C379.494,121.118,379.488,121.137,379.485,121.158z"/>
	<path fill="#F3F4F6" d="M341.504,119.125c-0.002-0.014-0.005-0.026-0.007-0.04c-0.011,0.005-0.022,0.011-0.034,0.016
		c0.003,0.005,0.006,0.011,0.009,0.015C341.483,119.119,341.493,119.122,341.504,119.125z"/>
	<path fill="#F3F4F6" d="M341.516,119.188c0.016-0.014,0.033-0.031,0.049-0.046c-0.021-0.007-0.039-0.009-0.06-0.017
		C341.508,119.147,341.512,119.166,341.516,119.188z"/>
	<path fill="#F3F4F6" d="M348.518,90.192c0.007-0.003,0.015-0.006,0.022-0.008c-0.018-0.008-0.033-0.018-0.05-0.024l0,0
		C348.499,90.17,348.508,90.181,348.518,90.192z"/>
	<path fill="#F3F4F6" d="M348.425,90.227c0.078,0.055,0.157,0.081,0.235,0.125c-0.048-0.053-0.095-0.107-0.143-0.16
		C348.486,90.204,348.457,90.215,348.425,90.227z"/>
	<path fill="#F3F4F6" d="M382.491,102.271c0.015-0.005,0.03-0.007,0.045-0.013c-0.01-0.03-0.018-0.06-0.028-0.09
		C382.504,102.207,382.496,102.234,382.491,102.271z"/>
	<path fill="#76838E" d="M95.604,87.134c0.002-0.007,0.006-0.015,0.008-0.021c0,0,0,0-0.001,0c-0.004,0.009-0.009,0.017-0.014,0.025
		C95.6,87.137,95.602,87.135,95.604,87.134z"/>
	<path fill="#76838E" d="M81.55,101.175L81.55,101.175c0,0-0.064,0.085-0.064,0.085c0.012-0.007,0.024-0.014,0.036-0.02
		C81.531,101.218,81.54,101.197,81.55,101.175L81.55,101.175z"/>
	<path fill="#76838E" d="M121.565,120.108c-0.004-0.004-0.009-0.007-0.013-0.01c-0.002,0.003-0.004,0.007-0.007,0.01
		C121.552,120.108,121.558,120.109,121.565,120.108z"/>
	<path fill="#76838E" d="M83.491,120.096c-0.004,0.003-0.008,0.006-0.012,0.009c0.006,0,0.012-0.001,0.018-0.001
		C83.494,120.101,83.493,120.098,83.491,120.096z"/>
	<path fill="#76838E" d="M113.316,89.104c0.811,1.079,1.463,2.01,0.146,3.351c-1.926,1.962-3.607,4.164-6.09,7.082
		c-1.575-4.461-0.989-7.518-1.025-10.487c-0.028-2.279,1.742-1.889,3.189-1.859h0h0c-4.644-1.962-9.288-2.949-13.934-0.056
		c-0.005,0.014-0.011,0.028-0.016,0.042c2.126-0.167,3.381,0.444,3.184,2.987c-0.19,2.464-0.041,4.955-0.041,7.942
		c-3.857-1.334-6.466-4.016-7.658-6.843c-1.032-2.444,3.472-1.971,4.481-4.05c-0.008-0.012-0.016-0.023-0.025-0.035
		c0,0,0.083-0.064,0.083-0.065c-6.851,1.306-12.818,7.282-14.125,14.147c3.454-5.317,3.462-5.325,8.058-0.568
		c1.006,1.042,1.936,2.157,2.978,3.324c-6.936,2.393-10.591,1.4-10.964-2.796c-0.012,0.007-0.023,0.014-0.035,0.021
		c-3.183,6.689-2.424,12.964,1.97,18.855c0.01-0.008,0.02-0.014,0.029-0.021c-2.406-8.139-2.367-8.147,6.579-7.91
		c0.636,0.017,1.27,0.121,3.138,0.308c-3.575,3.047-4.706,7.447-9.612,7.621c-0.026,0.029-0.043,0.061-0.072,0.089l-0.073-0.077
		c1.335,4.351,4.45,6.856,8.593,8.3c-1.098-1.314-1.991-2.478-0.157-4.078c1.965-1.715,3.645-3.757,5.918-6.148
		c1.433,4.143,1.427,7.781,0.4,10.991c-0.608,1.904-3.146-0.63-4.843-0.06c8.059,5.726,24.456,1.208,28.176-9.002l-0.073,0.076
		c-0.024-0.023-0.039-0.051-0.061-0.076c-5.062,0.301-5.608-4.908-8.826-6.576c0.626-1.626,1.563-1.338,2.314-1.36
		c8.921-0.257,8.96-0.245,6.604,7.905c0.009,0.007,0.019,0.014,0.029,0.021c4.364-5.939,5.115-12.259,1.953-18.992
		c0.432,2.871-0.437,4.366-3.697,3.99c-2.231-0.257-4.516-0.049-7.054-0.629c2.786-2.741,3.576-7.56,8.793-7.246
		C120.235,93.063,117.385,90.466,113.316,89.104z M102.431,111.883c-1.83-0.487-3.112-1.46-2.924-3.468
		c0.183-1.949,1.506-3.087,3.376-2.866c1.56,0.185,2.724,1.35,2.677,3.111C105.508,110.638,104.234,111.566,102.431,111.883z
		 M114.034,126.586c-1.006,1.97-3.771,2.479-5.978,3.12c-1.859,0.54-1.71-1.026-1.732-2.112c-0.057-2.784-0.019-5.571-0.019-8.836
		c2.652,0.834,3.641,2.449,4.828,3.729C112.301,123.746,114.924,124.844,114.034,126.586z"/>
	<path fill="#76838E" d="M382.536,102.258c0.01-0.004,0.02-0.005,0.03-0.009c0-0.001,0-0.001,0-0.001l-0.058-0.08
		C382.518,102.199,382.526,102.228,382.536,102.258z"/>
	<polygon fill="#76838E" points="348.489,90.16 348.489,90.16 348.489,90.16 	"/>
	<path fill="#76838E" d="M375.252,104.95c-0.995,0.347-2.871,0.78-3.457-0.794c-0.445-1.196,1.061-1.855,1.725-2.737
		c1.48-1.964,2.945-3.938,4.761-6.371c1.997,3.355,3.142,5.278,4.286,7.201c-0.838-5.934-4.259-9.95-9.407-12.687
		c-0.516,4.032-4.334,5.403-6.56,8.055c-0.612,0.729-1.374,0.392-1.811-0.603c-1.126-2.557,0.43-9.279,2.572-10.805v-0.001
		c-1.441-0.207-2.878-0.523-4.327-0.602c-5.406-0.288-10.603,0.173-14.545,4.553c0.018,0.007,0.033,0.017,0.05,0.024
		c10.123-3.82,10.119-3.775,8.483,7.989c-3.583-1.937-5.84-5.032-8.362-7.821c-0.079-0.044-0.157-0.07-0.235-0.125
		c0,0,0.058-0.066,0.061-0.069l0,0c-3.24,0.825-4.821,3.283-6.02,6.118c3.863,0.853,5.42,4.484,8.108,6.751
		c0.586,0.494,0.6,1.513,0.026,1.648c-3.053,0.726-6.274,0.828-9.224,0.042c-2.028-0.541-0.587-2.846-0.664-4.364
		c-0.017-0.319,0.094-0.646,0.149-0.978c0.001-0.002,0.002-0.005,0.004-0.008l0,0c-3.597,6.702-3.47,13.282,0.597,19.733
		c0.012-0.005,0.022-0.011,0.034-0.016c-1.293-7.034-1.255-7.046,6.353-6.92c0.951,0.016,1.9,0.118,3.092,0.687
		c-3.217,2.061-3.356,8.349-9.377,6.29c-0.016,0.015-0.033,0.032-0.049,0.046c0,0-0.069-0.079-0.068-0.079
		c0.009,0.003,0.017,0.005,0.025,0.007c-0.003-0.004-0.006-0.01-0.009-0.015c-0.006,0.002-0.011,0.005-0.017,0.008
		c3.765,9.337,13.081,13.715,25.077,11.8c-3.439-3.778-1.418-7.942-1.576-12.524c3.379,1.757,5.272,3.964,6.767,6.222
		c2.306,3.484,3.978,2.289,5.905-0.082c0.817-1.006,2-1.804,1.917-3.329c0,0-0.072,0.064-0.071,0.063l0,0c0,0,0,0-0.001,0.001
		c-0.05-0.07-0.088-0.141-0.129-0.211c-3.067-2.136-5.516-4.893-8.142-8.104c3.818-1.459,7.351-0.574,10.888-0.651
		c0.456,3.441-2.049,5.838-2.583,8.805c0.009,0.027,0.022,0.053,0.032,0.081c4.911-5.685,5.308-12.087,3.007-18.921
		c-0.015,0.006-0.03,0.008-0.045,0.013C381.851,107.615,377.672,104.108,375.252,104.95z M356.538,129.668
		c-2.104,0.5-4.371-0.945-6.251-2.332c-1.474-1.087-0.474-1.911,0.263-2.808c1.754-2.136,3.479-4.296,5.215-6.446
		c0.589,0.362,1.177,0.725,1.766,1.087c0,1.927,0.169,3.872-0.052,5.772C357.288,126.582,358.616,129.174,356.538,129.668z
		 M361.402,111.842c-1.978,0.209-3.129-1.134-3.279-2.984c-0.154-1.918,1.068-3.01,2.774-3.492c1.968,0.248,3.318,1.23,3.461,3.099
		C364.505,110.382,363.227,111.649,361.402,111.842z"/>
	<path fill="#76838E" d="M379.536,121.195c-0.002-0.006-0.005-0.011-0.007-0.016c-0.002,0.002-0.003,0.005-0.005,0.007
		C379.528,121.189,379.532,121.192,379.536,121.195z"/>
	<path fill="#F5F5F7" d="M121.514,120.108c-0.008,0.027-0.014,0.049-0.022,0.076c0.019-0.025,0.035-0.051,0.053-0.076
		C121.535,120.108,121.525,120.108,121.514,120.108z"/>
	<path fill="#F5F5F7" d="M121.523,120.077c-0.099-0.075-0.199-0.15-0.298-0.225c0.06,0.089,0.132,0.173,0.206,0.256
		c0.029-0.001,0.054,0.002,0.083,0C121.518,120.096,121.52,120.087,121.523,120.077z"/>
	<path fill="#F5F5F7" d="M121.492,120.184l0.073-0.076c-0.007,0.001-0.013,0-0.02,0
		C121.527,120.133,121.511,120.159,121.492,120.184z"/>
	<path fill="#F5F5F7" d="M83.496,120.104c0.019,0.025,0.036,0.053,0.056,0.078c-0.008-0.029-0.015-0.053-0.024-0.081
		C83.517,120.102,83.506,120.102,83.496,120.104z"/>
	<path fill="#F5F5F7" d="M83.624,120.093c0.069-0.077,0.138-0.154,0.192-0.235c-0.099,0.072-0.197,0.145-0.296,0.217
		c0.003,0.01,0.005,0.018,0.008,0.026C83.562,120.1,83.591,120.094,83.624,120.093z"/>
	<path fill="#F5F5F7" d="M83.496,120.104c-0.006,0-0.012,0.001-0.018,0.001l0.073,0.077
		C83.532,120.157,83.515,120.129,83.496,120.104z"/>
	<path fill="#F6F6F8" d="M348.489,90.16c-0.021,0.023-0.043,0.044-0.064,0.067c0.032-0.012,0.061-0.023,0.093-0.035
		C348.508,90.181,348.499,90.17,348.489,90.16z"/>
	<path fill="#F6F6F8" d="M348.66,90.352c0.305,0.17,0.611,0.284,0.92,0.325c-0.335-0.183-0.68-0.349-1.041-0.493
		c-0.007,0.002-0.015,0.005-0.022,0.008C348.565,90.245,348.612,90.299,348.66,90.352z"/>
	<polygon fill="#F6F6F8" points="348.486,90.157 348.485,90.158 348.489,90.16 	"/>
	<path fill="#F6F6F8" d="M348.489,90.16C348.489,90.16,348.489,90.16,348.489,90.16c-0.002-0.001-0.002-0.001-0.004-0.002
		c-0.002,0.003-0.061,0.069-0.061,0.069C348.446,90.204,348.468,90.183,348.489,90.16z"/>
	<path fill="#F6F7F9" d="M379.498,121.098c-0.135-0.395-0.309-0.764-0.506-1.118c0.033,0.36,0.139,0.716,0.343,1.068
		c0.051,0.035,0.099,0.074,0.15,0.109C379.488,121.137,379.494,121.118,379.498,121.098z"/>
	<path fill="#F6F7F9" d="M379.485,121.158c-0.006,0.034-0.015,0.066-0.02,0.101c0.021-0.023,0.039-0.049,0.059-0.072
		C379.511,121.176,379.498,121.167,379.485,121.158z"/>
	<path fill="#F6F7F9" d="M379.465,121.258L379.465,121.258c-0.001,0.001,0.071-0.063,0.071-0.063
		c-0.004-0.003-0.008-0.006-0.012-0.009C379.503,121.209,379.485,121.235,379.465,121.258z"/>
	<path fill="#F6F7F9" d="M341.473,119.116c0.014,0.024,0.028,0.048,0.043,0.072c-0.004-0.022-0.007-0.041-0.011-0.063
		C341.493,119.122,341.483,119.119,341.473,119.116z"/>
	<path fill="#F6F7F9" d="M341.564,119.142c0.063-0.058,0.127-0.116,0.191-0.179c-0.087,0.04-0.171,0.082-0.258,0.122
		c0.002,0.014,0.005,0.026,0.007,0.04C341.526,119.133,341.543,119.135,341.564,119.142z"/>
	<path fill="#F6F7F9" d="M341.447,119.109c-0.001,0,0.068,0.079,0.068,0.079c-0.015-0.024-0.029-0.048-0.043-0.072
		C341.464,119.114,341.456,119.112,341.447,119.109z"/>
</g>
</svg>
