<?xml version="1.0" encoding="utf-8"?>
<!-- Generator: Adobe Illustrator 16.0.2, SVG Export Plug-In . SVG Version: 6.00 Build 0)  -->
<!DOCTYPE svg PUBLIC "-//W3C//DTD SVG 1.1//EN" "http://www.w3.org/Graphics/SVG/1.1/DTD/svg11.dtd">
<svg version="1.1" id="Layer_1" xmlns="http://www.w3.org/2000/svg" xmlns:xlink="http://www.w3.org/1999/xlink" x="0px" y="0px"
	 width="355.568px" height="144.335px" viewBox="0 0 355.568 144.335" enable-background="new 0 0 355.568 144.335"
	 xml:space="preserve">
<g>
	<path fill="none" d="M47.09,119.381c-0.145-0.49-0.265-0.988-0.373-1.491C46.777,118.386,46.881,118.883,47.09,119.381z"/>
	<path fill="#76828D" d="M329.576,121.35c3.599,0.357,7.958,1.438,10.422-1.666c3.253-4.099,7.783-5.977,11.717-8.892
		c5.576-4.131,4.944-15.218-0.887-18.386c-1.742-0.946-1.526-1.706-0.895-3.095c2.093-4.599,1.838-9.502,1.112-14.255
		c-1.005-6.586-2.192-13.045-9.766-16.06c-11.111-4.423-21.812-9.904-33.563-12.614c-6.287-1.45-11.792-4.217-16.47-8.796
		c-4.399-4.306-9.088-8.32-13.724-12.378c-17.51-15.323-36.69-25.468-61.13-25.204C155.591,0.662,94.776,0.215,33.967,0.229
		C27.539,0.23,22.406,3.946,20.229,9.803C11.379,33.602,7.25,58.232,6.935,83.574c-0.051,4.107,1.649,9.115-4.357,11.049
		c-0.57,0.184-0.858,1.368-1.198,2.123c-4.231,9.396,1.607,19.758,12.98,20.971c9.918,1.059,19.802,2.335,29.697,3.551
		c1.537,0.188,3.135,0.533,3.033-1.887c-0.208-0.498-0.313-0.995-0.373-1.491c-2.322-10.853,4.023-24.511,14.725-30.852
		c10.712-6.346,21.563-6.622,32.832-0.58c-1.792,1.332-2.867,0.006-3.934-0.411c-20.708-8.104-41.602,5.646-42.122,27.78
		c-0.02,0.83-0.11,1.658-0.168,2.487c2.176,15.069,11.207,24.741,25.619,27.437c11.499,2.151,25.376-4.722,31.175-15.44
		c6.587-12.173,4.398-25.96-5.782-36.729c-0.522-0.553-1.706-0.945-0.98-2.659c8.626,7.898,12.959,17.202,11.718,28.601
		c-0.337,3.087-0.12,4.092,3.199,4.087c49.814-0.077,99.628-0.078,149.442,0.001c3.327,0.005,3.726-0.993,3.168-4.088
		c-1.146-6.356,0.383-12.62,3.723-17.071c-4.908,14.815-3.007,27.721,9.291,37.333c9.749,7.62,20.92,8.678,31.886,2.721
		c15.695-8.526,19.597-22.135,14.93-38.889c2.881,5.443,2.899,5.707,2.814,16.092C328.242,119.035,327.309,121.125,329.576,121.35z
		 M99.995,113.245c0.381,11.92-9.318,21.81-21.654,22.079c-11.679,0.255-21.602-9.473-21.799-21.369
		c-0.19-11.559,9.583-21.518,21.435-21.841C89.763,91.792,99.611,101.244,99.995,113.245z M265.797,36.65
		c-6.239-0.999-8.381,0.486-8.505,6.85c-0.076,3.938-1.335,5.033-5.203,4.938c-12.81-0.317-25.628-0.37-38.442-0.292
		c-3.341,0.021-4.286-1.159-4.25-4.344c0.113-9.985,0.032-19.974-0.097-29.959c-0.032-2.474,0.351-4.213,3.261-4.488
		c24.258-2.299,43.866,3.511,60.749,26.351c0.259,0.35,0.297,0.863,0.481,1.437C270.984,37.5,268.4,37.066,265.797,36.65z
		 M317.784,90.829c-20.613-11.645-27.424-10.558-47.803,7.761C275.537,83.019,303.208,74.916,317.784,90.829z M296.554,135.336
		c-11.484,0.06-21.199-9.689-21.265-21.338c-0.068-12.314,9.697-21.916,22.279-21.904c11.478,0.012,20.854,9.723,20.85,21.596
		C318.415,126.015,309.064,135.271,296.554,135.336z"/>
	<path fill="#84909A" d="M305.122,117.239c2.674,2.454,3.803,6.413,7.456,5.938c1.62-0.21,3.193-4.394,2.198-5.454
		C312.343,115.128,308.843,116.47,305.122,117.239z"/>
	<path fill="#838F99" d="M289.579,101.934c1.063,1.098,1.859,2.743,4.466,2.84c0-2.646-0.006-4.931,0.002-7.215
		c0.005-1.511-0.638-2.092-2.15-1.62c-1.719,0.536-3.914,0.756-4.719,2.322C286.239,100.09,288.556,100.875,289.579,101.934z"/>
	<path fill="#828D97" d="M283.545,116.338c-1.516,0.784-4.626-1.217-4.229,2.414c0.199,1.823,1.007,4.951,2.604,4.697
		c2.654-0.422,5.237-3.1,5.743-5.512C288.182,115.465,284.946,117.131,283.545,116.338z"/>
	<path fill="#828E98" d="M287.284,128.977c-0.016,1.292,3.821,3.272,5.362,2.198c2.908-2.026,0.991-5.515,0.631-8.72
		C291.006,124.592,287.324,125.727,287.284,128.977z"/>
	<path fill="#798690" d="M305.991,109.862c3.055-0.056,6.521,1.99,8.672-0.739c0.812-1.029-0.765-4.781-2.182-4.919
		C309.094,103.878,308.056,107.605,305.991,109.862z"/>
	<path fill="#77848F" d="M300.234,105.374c2.767-2.585,4.858-4.539,7.031-6.568c-2.129-1.689-4.962-3.838-6.29-2.569
		C298.917,98.205,300.347,101.709,300.234,105.374z"/>
	<path fill="#77848E" d="M300.67,122.692c0.084,3.046-2.084,6.501,0.729,8.638c1.046,0.793,4.872-0.619,5.001-2.098
		C306.694,125.854,302.988,124.737,300.67,122.692z"/>
	<path fill="#77838E" d="M288.289,110.194c-2.523-2.346-4.522-4.203-6.826-6.344c-1.062,1.583-3.179,4.005-1.901,5.491
		C281.581,111.688,284.903,110.119,288.289,110.194z"/>
	<path fill="#7C8893" d="M296.746,111.188c-1.569,0.154-2.501,1.092-2.426,2.6c0.091,1.797,1.289,2.633,3.074,2.424
		c1.627-0.189,2.29-1.309,2.132-2.803C299.361,111.847,298.322,111.123,296.746,111.188z"/>
	<path fill="#838F99" d="M91.704,116.358c-1.471,0.682-4.607-0.892-4.173,1.658c0.429,2.515,3.062,5.188,5.621,5.535
		c1.93,0.263,2.826-3.02,2.923-4.983C96.243,115.174,93.232,117.071,91.704,116.358z"/>
	<path fill="#85909A" d="M64.764,116.307c-1.103,1.146-4.284-1.376-4.27,1.991c0.008,1.918,0.73,4.312,2.826,5.463
		c0.706,0.388,6.439-5.302,6.12-6.072C68.553,115.548,66.56,116.866,64.764,116.307z"/>
	<path fill="#808C96" d="M81.294,99.912c-0.132,1.573-0.031,3.167-0.031,4.752c0.714,0.467,1.427,0.934,2.141,1.4
		c1.312-1.896,2.602-3.809,3.945-5.681c0.588-0.82,1.357-1.606,0.134-2.438c-1.626-1.103-3.432-2.545-5.346-1.968
		C80.489,96.476,81.408,98.544,81.294,99.912z"/>
	<path fill="#7D8994" d="M68.636,128.652c0.084,2.027,3.63,2.791,6.31,2.858c0.44-2.995,0.425-5.894-0.148-10.056
		C72.126,124.368,68.517,125.809,68.636,128.652z"/>
	<path fill="#7D8993" d="M81.386,121.188c0.219,4.475-1.5,7.9,0.934,10.106c1.134,1.028,5.156-0.453,5.374-2.136
		C88.133,125.757,84.399,124.531,81.386,121.188z"/>
	<path fill="#7C8993" d="M73.953,96.07c-1.103-0.782-5.298,0.589-5.287,2.425c0.018,3.158,3.274,4.767,6.84,7.449
		C74.548,101.701,76.851,98.125,73.953,96.07z"/>
	<path fill="#7B8892" d="M69.415,109.539c-2.663-1.55-3.035-6.248-6.813-5.288c-1.412,0.359-2.896,4.043-1.946,5.029
		C62.924,111.638,66.258,110.15,69.415,109.539z"/>
	<path fill="#7C8993" d="M86.126,110.251c4.353-0.27,7.736,1.602,9.815-1.264c0.86-1.186-0.833-4.819-2.227-4.94
		C90.465,103.764,89.367,107.313,86.126,110.251z"/>
	<path fill="#838F99" d="M78.18,111.164c-1.623,0.004-2.449,1.046-2.518,2.437c-0.069,1.397,0.691,2.519,2.277,2.658
		c1.753,0.154,2.729-0.765,3.111-2.447C80.813,112.162,79.969,111.159,78.18,111.164z"/>
</g>
</svg>
